<svg width="971" height="626" viewBox="0 0 971 626" fill="none" xmlns="http://www.w3.org/2000/svg">
<rect width="971" height="626" fill="#1E1E1E"/>
<rect y="1" width="971" height="625" fill="#26282B"/>
<rect y="1" width="99" height="625" fill="#212426"/>
<rect x="99" y="1" width="872" height="35" fill="#212426"/>
<path d="M99 1H202V36H99V1Z" fill="#26282B"/>
<path d="M99 1.5H202V0.5H99V1.5Z" fill="#3278FF"/>
<rect x="202" y="1" width="103" height="35" fill="#212426" stroke="white" stroke-opacity="0.05"/>
<rect x="305" y="1" width="103" height="35" fill="#212426" stroke="white" stroke-opacity="0.05"/>
<line x1="184.398" y1="14.3221" x2="188.207" y2="19.3218" stroke="white"/>
<line x1="183.602" y1="19.3221" x2="187.411" y2="14.3222" stroke="white"/>
<path d="M116.92 22V15.4545H117.926V22H116.92ZM117.432 14.3636C117.236 14.3636 117.067 14.2969 116.925 14.1634C116.786 14.0298 116.716 13.8693 116.716 13.6818C116.716 13.4943 116.786 13.3338 116.925 13.2003C117.067 13.0668 117.236 13 117.432 13C117.628 13 117.795 13.0668 117.935 13.2003C118.077 13.3338 118.148 13.4943 118.148 13.6818C118.148 13.8693 118.077 14.0298 117.935 14.1634C117.795 14.2969 117.628 14.3636 117.432 14.3636ZM120.453 18.7188V22H119.615V16.5455H120.424V17.3977H120.495C120.623 17.1207 120.817 16.8982 121.078 16.7301C121.338 16.5597 121.674 16.4744 122.086 16.4744C122.456 16.4744 122.779 16.5502 123.056 16.7017C123.333 16.8509 123.548 17.0781 123.702 17.3835C123.856 17.6866 123.933 18.0701 123.933 18.5341V22H123.095V18.5909C123.095 18.1624 122.984 17.8286 122.761 17.5895C122.538 17.348 122.233 17.2273 121.845 17.2273C121.577 17.2273 121.338 17.2853 121.127 17.4013C120.919 17.5173 120.755 17.6866 120.634 17.9091C120.513 18.1316 120.453 18.4015 120.453 18.7188ZM127.524 22.1136C127.069 22.1136 126.668 21.9988 126.32 21.7692C125.972 21.5372 125.7 21.2105 125.503 20.7891C125.307 20.3653 125.209 19.8646 125.209 19.2869C125.209 18.714 125.307 18.2169 125.503 17.7955C125.7 17.3741 125.973 17.0485 126.324 16.8189C126.674 16.5893 127.079 16.4744 127.538 16.4744C127.893 16.4744 128.174 16.5336 128.38 16.652C128.588 16.768 128.747 16.9006 128.856 17.0497C128.967 17.1965 129.053 17.3172 129.115 17.4119H129.186V14.7273H130.024V22H129.214V21.1619H129.115C129.053 21.2614 128.966 21.3868 128.852 21.5384C128.738 21.6875 128.576 21.8213 128.366 21.9396C128.155 22.0556 127.874 22.1136 127.524 22.1136ZM127.638 21.3608C127.974 21.3608 128.258 21.2732 128.49 21.098C128.722 20.9205 128.898 20.6754 129.019 20.3629C129.14 20.0481 129.2 19.6847 129.2 19.2727C129.2 18.8655 129.141 18.5092 129.023 18.2038C128.904 17.8961 128.729 17.657 128.497 17.4865C128.265 17.3137 127.979 17.2273 127.638 17.2273C127.282 17.2273 126.987 17.3184 126.75 17.5007C126.515 17.6806 126.339 17.9257 126.221 18.2358C126.105 18.5436 126.047 18.8892 126.047 19.2727C126.047 19.661 126.106 20.0137 126.224 20.331C126.345 20.6458 126.523 20.8968 126.757 21.0838C126.994 21.2685 127.287 21.3608 127.638 21.3608ZM133.962 22.1136C133.437 22.1136 132.983 21.9976 132.602 21.7656C132.223 21.5312 131.931 21.2045 131.725 20.7855C131.521 20.3641 131.42 19.8741 131.42 19.3153C131.42 18.7566 131.521 18.2642 131.725 17.8381C131.931 17.4096 132.217 17.0758 132.584 16.8366C132.954 16.5952 133.385 16.4744 133.877 16.4744C134.161 16.4744 134.442 16.5218 134.719 16.6165C134.996 16.7112 135.248 16.8651 135.475 17.0781C135.702 17.2888 135.883 17.5682 136.018 17.9162C136.153 18.2642 136.221 18.6927 136.221 19.2017V19.5568H132.016V18.8324H135.368C135.368 18.5246 135.307 18.25 135.184 18.0085C135.063 17.767 134.89 17.5765 134.665 17.4368C134.443 17.2971 134.18 17.2273 133.877 17.2273C133.543 17.2273 133.254 17.3101 133.01 17.4759C132.769 17.6392 132.583 17.8523 132.453 18.1151C132.323 18.3778 132.258 18.6596 132.258 18.9602V19.4432C132.258 19.8551 132.329 20.2043 132.471 20.4908C132.615 20.7749 132.815 20.9915 133.071 21.1406C133.327 21.2874 133.624 21.3608 133.962 21.3608C134.182 21.3608 134.381 21.33 134.559 21.2685C134.739 21.2045 134.894 21.1098 135.024 20.9844C135.154 20.8565 135.255 20.6979 135.326 20.5085L136.135 20.7358C136.05 21.0104 135.907 21.2519 135.706 21.4602C135.505 21.6662 135.256 21.8272 134.96 21.9432C134.664 22.0568 134.331 22.1136 133.962 22.1136ZM137.974 16.5455L139.281 18.7756L140.588 16.5455H141.554L139.792 19.2727L141.554 22H140.588L139.281 19.8835L137.974 22H137.008L138.741 19.2727L137.008 16.5455H137.974ZM143.36 22.0568C143.185 22.0568 143.035 21.9941 142.909 21.8686C142.784 21.7431 142.721 21.5928 142.721 21.4176C142.721 21.2424 142.784 21.0921 142.909 20.9666C143.035 20.8411 143.185 20.7784 143.36 20.7784C143.535 20.7784 143.686 20.8411 143.811 20.9666C143.937 21.0921 143.999 21.2424 143.999 21.4176C143.999 21.5336 143.97 21.6402 143.911 21.7372C143.854 21.8343 143.777 21.9124 143.68 21.9716C143.585 22.0284 143.479 22.0568 143.36 22.0568ZM146.341 18.7188V22H145.503V14.7273H146.341V17.3977H146.412C146.54 17.116 146.732 16.8923 146.988 16.7266C147.246 16.5585 147.589 16.4744 148.018 16.4744C148.389 16.4744 148.715 16.549 148.994 16.6982C149.273 16.8449 149.49 17.071 149.644 17.3764C149.8 17.6795 149.878 18.0653 149.878 18.5341V22H149.04V18.5909C149.04 18.1577 148.928 17.8227 148.703 17.5859C148.48 17.3468 148.171 17.2273 147.776 17.2273C147.501 17.2273 147.255 17.2853 147.037 17.4013C146.822 17.5173 146.652 17.6866 146.526 17.9091C146.403 18.1316 146.341 18.4015 146.341 18.7188ZM153.784 16.5455V17.2557H150.957V16.5455H153.784ZM151.781 15.2386H152.619V20.4375C152.619 20.6742 152.653 20.8518 152.722 20.9702C152.793 21.0862 152.883 21.1643 152.992 21.2045C153.103 21.2424 153.22 21.2614 153.343 21.2614C153.436 21.2614 153.511 21.2566 153.571 21.2472C153.63 21.2353 153.677 21.2259 153.713 21.2188L153.883 21.9716C153.826 21.9929 153.747 22.0142 153.645 22.0355C153.543 22.0592 153.414 22.071 153.258 22.071C153.021 22.071 152.789 22.0201 152.562 21.9183C152.337 21.8165 152.15 21.6615 152.001 21.4531C151.854 21.2448 151.781 20.982 151.781 20.6648V15.2386ZM155.044 22V16.5455H155.854V17.3977H155.925C156.039 17.1065 156.222 16.8804 156.475 16.7195C156.729 16.5561 157.033 16.4744 157.388 16.4744C157.748 16.4744 158.047 16.5561 158.287 16.7195C158.528 16.8804 158.716 17.1065 158.851 17.3977H158.908C159.048 17.116 159.257 16.8923 159.537 16.7266C159.816 16.5585 160.151 16.4744 160.542 16.4744C161.029 16.4744 161.428 16.6271 161.738 16.9325C162.048 17.2356 162.203 17.7079 162.203 18.3494V22H161.365V18.3494C161.365 17.947 161.255 17.6593 161.035 17.4865C160.815 17.3137 160.556 17.2273 160.257 17.2273C159.874 17.2273 159.577 17.3433 159.366 17.5753C159.155 17.8049 159.05 18.0961 159.05 18.4489V22H158.198V18.2642C158.198 17.9541 158.097 17.7043 157.896 17.5149C157.695 17.3232 157.435 17.2273 157.118 17.2273C156.9 17.2273 156.697 17.2853 156.507 17.4013C156.32 17.5173 156.169 17.6783 156.053 17.8842C155.939 18.0878 155.882 18.3234 155.882 18.5909V22H155.044ZM164.574 14.7273V22H163.736V14.7273H164.574Z" fill="white"/>
<path d="M233.557 16.9205L232.653 17.1761C232.597 17.0256 232.513 16.8793 232.402 16.7372C232.294 16.5923 232.146 16.473 231.959 16.3793C231.771 16.2855 231.531 16.2386 231.239 16.2386C230.838 16.2386 230.504 16.331 230.237 16.5156C229.973 16.6974 229.841 16.929 229.841 17.2102C229.841 17.4602 229.932 17.6577 230.114 17.8026C230.295 17.9474 230.58 18.0682 230.966 18.1648L231.938 18.4034C232.523 18.5455 232.959 18.7628 233.246 19.0554C233.533 19.3452 233.676 19.7187 233.676 20.1761C233.676 20.5511 233.568 20.8864 233.352 21.1818C233.139 21.4773 232.841 21.7102 232.457 21.8807C232.074 22.0511 231.628 22.1364 231.119 22.1364C230.452 22.1364 229.899 21.9915 229.462 21.7017C229.024 21.4119 228.747 20.9886 228.631 20.4318L229.585 20.1932C229.676 20.5455 229.848 20.8097 230.101 20.9858C230.357 21.1619 230.69 21.25 231.102 21.25C231.571 21.25 231.943 21.1506 232.219 20.9517C232.497 20.75 232.636 20.5085 232.636 20.2273C232.636 20 232.557 19.8097 232.398 19.6562C232.239 19.5 231.994 19.3835 231.665 19.3068L230.574 19.0511C229.974 18.9091 229.534 18.6889 229.253 18.3906C228.974 18.0895 228.835 17.7131 228.835 17.2614C228.835 16.892 228.939 16.5653 229.146 16.2812C229.357 15.9972 229.642 15.7741 230.003 15.6122C230.366 15.4503 230.778 15.3693 231.239 15.3693C231.886 15.3693 232.395 15.5114 232.764 15.7955C233.136 16.0795 233.401 16.4545 233.557 16.9205ZM238.037 15.4545V16.3068H234.645V15.4545H238.037ZM235.633 13.8864H236.639V20.125C236.639 20.4091 236.68 20.6222 236.762 20.7642C236.848 20.9034 236.956 20.9972 237.086 21.0455C237.22 21.0909 237.36 21.1136 237.508 21.1136C237.619 21.1136 237.71 21.108 237.781 21.0966C237.852 21.0824 237.909 21.071 237.951 21.0625L238.156 21.9659C238.088 21.9915 237.993 22.017 237.87 22.0426C237.748 22.071 237.593 22.0852 237.406 22.0852C237.122 22.0852 236.843 22.0241 236.571 21.902C236.301 21.7798 236.076 21.5938 235.897 21.3438C235.721 21.0938 235.633 20.7784 235.633 20.3977V13.8864ZM240.197 24.4545C240.027 24.4545 239.875 24.4403 239.741 24.4119C239.608 24.3864 239.515 24.3608 239.464 24.3352L239.72 23.4489C239.964 23.5114 240.18 23.5341 240.368 23.517C240.555 23.5 240.721 23.4162 240.866 23.2656C241.014 23.1179 241.149 22.8778 241.271 22.5455L241.458 22.0341L239.038 15.4545H240.129L241.936 20.6705H242.004L243.811 15.4545H244.902L242.123 22.9545C241.998 23.2926 241.843 23.5724 241.659 23.794C241.474 24.0185 241.26 24.1847 241.015 24.2926C240.774 24.4006 240.501 24.4545 240.197 24.4545ZM247.235 13.2727V22H246.229V13.2727H247.235ZM251.821 22.1364C251.19 22.1364 250.646 21.9972 250.189 21.7188C249.734 21.4375 249.384 21.0455 249.136 20.5426C248.892 20.0369 248.77 19.4489 248.77 18.7784C248.77 18.108 248.892 17.517 249.136 17.0057C249.384 16.4915 249.727 16.0909 250.168 15.804C250.611 15.5142 251.128 15.3693 251.719 15.3693C252.06 15.3693 252.396 15.4261 252.729 15.5398C253.061 15.6534 253.364 15.8381 253.636 16.0938C253.909 16.3466 254.126 16.6818 254.288 17.0994C254.45 17.517 254.531 18.0312 254.531 18.642V19.0682H249.486V18.1989H253.509C253.509 17.8295 253.435 17.5 253.287 17.2102C253.142 16.9205 252.935 16.6918 252.665 16.5241C252.398 16.3565 252.082 16.2727 251.719 16.2727C251.318 16.2727 250.972 16.3722 250.679 16.571C250.389 16.767 250.166 17.0227 250.01 17.3381C249.854 17.6534 249.776 17.9915 249.776 18.3523V18.9318C249.776 19.4261 249.861 19.8452 250.031 20.1889C250.205 20.5298 250.445 20.7898 250.751 20.9688C251.058 21.1449 251.415 21.233 251.821 21.233C252.085 21.233 252.324 21.196 252.537 21.1222C252.753 21.0455 252.939 20.9318 253.095 20.7812C253.251 20.6278 253.372 20.4375 253.457 20.2102L254.429 20.483C254.327 20.8125 254.155 21.1023 253.913 21.3523C253.672 21.5994 253.374 21.7926 253.018 21.9318C252.663 22.0682 252.264 22.1364 251.821 22.1364ZM256.794 22.0682C256.584 22.0682 256.403 21.9929 256.253 21.8423C256.102 21.6918 256.027 21.5114 256.027 21.3011C256.027 21.0909 256.102 20.9105 256.253 20.7599C256.403 20.6094 256.584 20.5341 256.794 20.5341C257.004 20.5341 257.185 20.6094 257.335 20.7599C257.486 20.9105 257.561 21.0909 257.561 21.3011C257.561 21.4403 257.526 21.5682 257.455 21.6847C257.386 21.8011 257.294 21.8949 257.178 21.9659C257.064 22.0341 256.936 22.0682 256.794 22.0682ZM262.025 22.1364C261.411 22.1364 260.883 21.9915 260.44 21.7017C259.996 21.4119 259.656 21.0128 259.417 20.5043C259.178 19.9957 259.059 19.4148 259.059 18.7614C259.059 18.0966 259.181 17.5099 259.425 17.0014C259.673 16.4901 260.016 16.0909 260.457 15.804C260.9 15.5142 261.417 15.3693 262.008 15.3693C262.468 15.3693 262.883 15.4545 263.252 15.625C263.621 15.7955 263.924 16.0341 264.16 16.3409C264.396 16.6477 264.542 17.0057 264.599 17.4148H263.593C263.516 17.1165 263.346 16.8523 263.082 16.6222C262.82 16.3892 262.468 16.2727 262.025 16.2727C261.633 16.2727 261.289 16.375 260.994 16.5795C260.701 16.7812 260.472 17.0668 260.308 17.4361C260.146 17.8026 260.065 18.233 260.065 18.7273C260.065 19.233 260.144 19.6733 260.303 20.0483C260.465 20.4233 260.692 20.7145 260.985 20.9219C261.281 21.1293 261.627 21.233 262.025 21.233C262.286 21.233 262.523 21.1875 262.737 21.0966C262.95 21.0057 263.13 20.875 263.278 20.7045C263.425 20.5341 263.531 20.3295 263.593 20.0909H264.599C264.542 20.4773 264.401 20.8253 264.177 21.1349C263.955 21.4418 263.661 21.6861 263.295 21.8679C262.931 22.0469 262.508 22.1364 262.025 22.1364ZM270.705 16.9205L269.802 17.1761C269.745 17.0256 269.661 16.8793 269.55 16.7372C269.442 16.5923 269.295 16.473 269.107 16.3793C268.92 16.2855 268.68 16.2386 268.387 16.2386C267.987 16.2386 267.653 16.331 267.386 16.5156C267.121 16.6974 266.989 16.929 266.989 17.2102C266.989 17.4602 267.08 17.6577 267.262 17.8026C267.444 17.9474 267.728 18.0682 268.114 18.1648L269.086 18.4034C269.671 18.5455 270.107 18.7628 270.394 19.0554C270.681 19.3452 270.825 19.7187 270.825 20.1761C270.825 20.5511 270.717 20.8864 270.501 21.1818C270.288 21.4773 269.989 21.7102 269.606 21.8807C269.222 22.0511 268.776 22.1364 268.268 22.1364C267.6 22.1364 267.048 21.9915 266.61 21.7017C266.173 21.4119 265.896 20.9886 265.779 20.4318L266.734 20.1932C266.825 20.5455 266.996 20.8097 267.249 20.9858C267.505 21.1619 267.839 21.25 268.251 21.25C268.719 21.25 269.092 21.1506 269.367 20.9517C269.646 20.75 269.785 20.5085 269.785 20.2273C269.785 20 269.705 19.8097 269.546 19.6562C269.387 19.5 269.143 19.3835 268.813 19.3068L267.722 19.0511C267.123 18.9091 266.683 18.6889 266.401 18.3906C266.123 18.0895 265.984 17.7131 265.984 17.2614C265.984 16.892 266.087 16.5653 266.295 16.2812C266.505 15.9972 266.79 15.7741 267.151 15.6122C267.515 15.4503 267.927 15.3693 268.387 15.3693C269.035 15.3693 269.543 15.5114 269.913 15.7955C270.285 16.0795 270.549 16.4545 270.705 16.9205ZM276.975 16.9205L276.071 17.1761C276.015 17.0256 275.931 16.8793 275.82 16.7372C275.712 16.5923 275.564 16.473 275.377 16.3793C275.189 16.2855 274.949 16.2386 274.657 16.2386C274.256 16.2386 273.922 16.331 273.655 16.5156C273.391 16.6974 273.259 16.929 273.259 17.2102C273.259 17.4602 273.35 17.6577 273.532 17.8026C273.713 17.9474 273.998 18.0682 274.384 18.1648L275.355 18.4034C275.941 18.5455 276.377 18.7628 276.664 19.0554C276.951 19.3452 277.094 19.7187 277.094 20.1761C277.094 20.5511 276.986 20.8864 276.77 21.1818C276.557 21.4773 276.259 21.7102 275.875 21.8807C275.492 22.0511 275.046 22.1364 274.537 22.1364C273.87 22.1364 273.317 21.9915 272.88 21.7017C272.442 21.4119 272.165 20.9886 272.049 20.4318L273.003 20.1932C273.094 20.5455 273.266 20.8097 273.519 20.9858C273.775 21.1619 274.108 21.25 274.52 21.25C274.989 21.25 275.361 21.1506 275.637 20.9517C275.915 20.75 276.054 20.5085 276.054 20.2273C276.054 20 275.975 19.8097 275.816 19.6562C275.657 19.5 275.412 19.3835 275.083 19.3068L273.992 19.0511C273.392 18.9091 272.952 18.6889 272.671 18.3906C272.392 18.0895 272.253 17.7131 272.253 17.2614C272.253 16.892 272.357 16.5653 272.564 16.2812C272.775 15.9972 273.06 15.7741 273.421 15.6122C273.784 15.4503 274.196 15.3693 274.657 15.3693C275.304 15.3693 275.813 15.5114 276.182 15.7955C276.554 16.0795 276.819 16.4545 276.975 16.9205Z" fill="white"/>
<path d="M338.557 15.9205L337.653 16.1761C337.597 16.0256 337.513 15.8793 337.402 15.7372C337.294 15.5923 337.146 15.473 336.959 15.3793C336.771 15.2855 336.531 15.2386 336.239 15.2386C335.838 15.2386 335.504 15.331 335.237 15.5156C334.973 15.6974 334.841 15.929 334.841 16.2102C334.841 16.4602 334.932 16.6577 335.114 16.8026C335.295 16.9474 335.58 17.0682 335.966 17.1648L336.938 17.4034C337.523 17.5455 337.959 17.7628 338.246 18.0554C338.533 18.3452 338.676 18.7187 338.676 19.1761C338.676 19.5511 338.568 19.8864 338.352 20.1818C338.139 20.4773 337.841 20.7102 337.457 20.8807C337.074 21.0511 336.628 21.1364 336.119 21.1364C335.452 21.1364 334.899 20.9915 334.462 20.7017C334.024 20.4119 333.747 19.9886 333.631 19.4318L334.585 19.1932C334.676 19.5455 334.848 19.8097 335.101 19.9858C335.357 20.1619 335.69 20.25 336.102 20.25C336.571 20.25 336.943 20.1506 337.219 19.9517C337.497 19.75 337.636 19.5085 337.636 19.2273C337.636 19 337.557 18.8097 337.398 18.6562C337.239 18.5 336.994 18.3835 336.665 18.3068L335.574 18.0511C334.974 17.9091 334.534 17.6889 334.253 17.3906C333.974 17.0895 333.835 16.7131 333.835 16.2614C333.835 15.892 333.939 15.5653 334.146 15.2812C334.357 14.9972 334.642 14.7741 335.003 14.6122C335.366 14.4503 335.778 14.3693 336.239 14.3693C336.886 14.3693 337.395 14.5114 337.764 14.7955C338.136 15.0795 338.401 15.4545 338.557 15.9205ZM342.849 21.1364C342.235 21.1364 341.707 20.9915 341.264 20.7017C340.821 20.4119 340.48 20.0128 340.241 19.5043C340.002 18.9957 339.883 18.4148 339.883 17.7614C339.883 17.0966 340.005 16.5099 340.25 16.0014C340.497 15.4901 340.841 15.0909 341.281 14.804C341.724 14.5142 342.241 14.3693 342.832 14.3693C343.292 14.3693 343.707 14.4545 344.076 14.625C344.446 14.7955 344.748 15.0341 344.984 15.3409C345.22 15.6477 345.366 16.0057 345.423 16.4148H344.417C344.341 16.1165 344.17 15.8523 343.906 15.6222C343.645 15.3892 343.292 15.2727 342.849 15.2727C342.457 15.2727 342.113 15.375 341.818 15.5795C341.525 15.7812 341.297 16.0668 341.132 16.4361C340.97 16.8026 340.889 17.233 340.889 17.7273C340.889 18.233 340.968 18.6733 341.127 19.0483C341.289 19.4233 341.517 19.7145 341.809 19.9219C342.105 20.1293 342.451 20.233 342.849 20.233C343.11 20.233 343.348 20.1875 343.561 20.0966C343.774 20.0057 343.954 19.875 344.102 19.7045C344.25 19.5341 344.355 19.3295 344.417 19.0909H345.423C345.366 19.4773 345.225 19.8253 345.001 20.1349C344.779 20.4418 344.485 20.6861 344.119 20.8679C343.755 21.0469 343.332 21.1364 342.849 21.1364ZM346.893 21V14.4545H347.865V15.4432H347.933C348.052 15.1193 348.268 14.8565 348.581 14.6548C348.893 14.4531 349.245 14.3523 349.637 14.3523C349.711 14.3523 349.804 14.3537 349.914 14.3565C350.025 14.3594 350.109 14.3636 350.166 14.3693V15.392C350.132 15.3835 350.054 15.3707 349.931 15.3537C349.812 15.3338 349.686 15.3239 349.552 15.3239C349.234 15.3239 348.95 15.3906 348.7 15.5241C348.453 15.6548 348.257 15.8366 348.112 16.0696C347.97 16.2997 347.899 16.5625 347.899 16.858V21H346.893ZM351.358 21V14.4545H352.364V21H351.358ZM351.869 13.3636C351.673 13.3636 351.504 13.2969 351.362 13.1634C351.223 13.0298 351.153 12.8693 351.153 12.6818C351.153 12.4943 351.223 12.3338 351.362 12.2003C351.504 12.0668 351.673 12 351.869 12C352.065 12 352.233 12.0668 352.372 12.2003C352.514 12.3338 352.585 12.4943 352.585 12.6818C352.585 12.8693 352.514 13.0298 352.372 13.1634C352.233 13.2969 352.065 13.3636 351.869 13.3636ZM354.206 23.4545V14.4545H355.177V15.4943H355.297C355.37 15.3807 355.473 15.2358 355.603 15.0597C355.737 14.8807 355.927 14.7216 356.174 14.5824C356.424 14.4403 356.762 14.3693 357.189 14.3693C357.74 14.3693 358.225 14.5071 358.646 14.7827C359.066 15.0582 359.395 15.4489 359.63 15.9545C359.866 16.4602 359.984 17.0568 359.984 17.7443C359.984 18.4375 359.866 19.0384 359.63 19.5469C359.395 20.0526 359.068 20.4446 358.65 20.723C358.233 20.9986 357.751 21.1364 357.206 21.1364C356.785 21.1364 356.449 21.0668 356.196 20.9276C355.943 20.7855 355.748 20.625 355.612 20.446C355.475 20.2642 355.37 20.1136 355.297 19.9943H355.211V23.4545H354.206ZM355.194 17.7273C355.194 18.2216 355.267 18.6577 355.412 19.0355C355.556 19.4105 355.768 19.7045 356.047 19.9176C356.325 20.1278 356.666 20.233 357.069 20.233C357.49 20.233 357.841 20.1222 358.122 19.9006C358.406 19.6761 358.619 19.375 358.761 18.9972C358.906 18.6165 358.978 18.1932 358.978 17.7273C358.978 17.267 358.907 16.8523 358.765 16.483C358.626 16.1108 358.414 15.8168 358.13 15.6009C357.849 15.3821 357.495 15.2727 357.069 15.2727C356.66 15.2727 356.316 15.3764 356.038 15.5838C355.76 15.7884 355.549 16.0753 355.407 16.4446C355.265 16.8111 355.194 17.2386 355.194 17.7273ZM364.365 14.4545V15.3068H360.973V14.4545H364.365ZM361.961 12.8864H362.967V19.125C362.967 19.4091 363.008 19.6222 363.091 19.7642C363.176 19.9034 363.284 19.9972 363.414 20.0455C363.548 20.0909 363.689 20.1136 363.836 20.1136C363.947 20.1136 364.038 20.108 364.109 20.0966C364.18 20.0824 364.237 20.071 364.279 20.0625L364.484 20.9659C364.416 20.9915 364.321 21.017 364.199 21.0426C364.076 21.071 363.922 21.0852 363.734 21.0852C363.45 21.0852 363.172 21.0241 362.899 20.902C362.629 20.7798 362.404 20.5938 362.225 20.3438C362.049 20.0938 361.961 19.7784 361.961 19.3977V12.8864ZM366.61 21.0682C366.4 21.0682 366.22 20.9929 366.069 20.8423C365.919 20.6918 365.843 20.5114 365.843 20.3011C365.843 20.0909 365.919 19.9105 366.069 19.7599C366.22 19.6094 366.4 19.5341 366.61 19.5341C366.821 19.5341 367.001 19.6094 367.152 19.7599C367.302 19.9105 367.377 20.0909 367.377 20.3011C367.377 20.4403 367.342 20.5682 367.271 20.6847C367.203 20.8011 367.11 20.8949 366.994 20.9659C366.88 21.0341 366.752 21.0682 366.61 21.0682ZM369.182 14.4545H370.188V21.4773C370.188 21.8807 370.118 22.2301 369.979 22.5256C369.843 22.821 369.635 23.0497 369.357 23.2116C369.081 23.3736 368.733 23.4545 368.313 23.4545C368.279 23.4545 368.245 23.4545 368.211 23.4545C368.176 23.4545 368.142 23.4545 368.108 23.4545V22.517C368.142 22.517 368.174 22.517 368.202 22.517C368.23 22.517 368.262 22.517 368.296 22.517C368.603 22.517 368.827 22.4261 368.969 22.2443C369.111 22.0653 369.182 21.8097 369.182 21.4773V14.4545ZM369.676 13.3636C369.48 13.3636 369.311 13.2969 369.169 13.1634C369.03 13.0298 368.961 12.8693 368.961 12.6818C368.961 12.4943 369.03 12.3338 369.169 12.2003C369.311 12.0668 369.48 12 369.676 12C369.873 12 370.04 12.0668 370.179 12.2003C370.321 12.3338 370.392 12.4943 370.392 12.6818C370.392 12.8693 370.321 13.0298 370.179 13.1634C370.04 13.2969 369.873 13.3636 369.676 13.3636ZM376.666 15.9205L375.763 16.1761C375.706 16.0256 375.622 15.8793 375.511 15.7372C375.403 15.5923 375.256 15.473 375.068 15.3793C374.881 15.2855 374.641 15.2386 374.348 15.2386C373.947 15.2386 373.614 15.331 373.347 15.5156C373.082 15.6974 372.95 15.929 372.95 16.2102C372.95 16.4602 373.041 16.6577 373.223 16.8026C373.405 16.9474 373.689 17.0682 374.075 17.1648L375.047 17.4034C375.632 17.5455 376.068 17.7628 376.355 18.0554C376.642 18.3452 376.786 18.7187 376.786 19.1761C376.786 19.5511 376.678 19.8864 376.462 20.1818C376.249 20.4773 375.95 20.7102 375.567 20.8807C375.183 21.0511 374.737 21.1364 374.229 21.1364C373.561 21.1364 373.009 20.9915 372.571 20.7017C372.134 20.4119 371.857 19.9886 371.74 19.4318L372.695 19.1932C372.786 19.5455 372.957 19.8097 373.21 19.9858C373.466 20.1619 373.8 20.25 374.212 20.25C374.68 20.25 375.053 20.1506 375.328 19.9517C375.607 19.75 375.746 19.5085 375.746 19.2273C375.746 19 375.666 18.8097 375.507 18.6562C375.348 18.5 375.104 18.3835 374.774 18.3068L373.683 18.0511C373.084 17.9091 372.643 17.6889 372.362 17.3906C372.084 17.0895 371.945 16.7131 371.945 16.2614C371.945 15.892 372.048 15.5653 372.256 15.2812C372.466 14.9972 372.751 14.7741 373.112 14.6122C373.476 14.4503 373.888 14.3693 374.348 14.3693C374.996 14.3693 375.504 14.5114 375.874 14.7955C376.246 15.0795 376.51 15.4545 376.666 15.9205Z" fill="white"/>
<path d="M117.21 61.1136V60.4318L122.699 57.6364V58.7273L118.489 60.7557L118.523 60.6875V60.858L118.489 60.7898L122.699 62.8182V63.9091L117.21 61.1136ZM126.16 56.2727L126.075 62.5455H125.086L125.001 56.2727H126.16ZM125.581 65.0682C125.37 65.0682 125.19 64.9929 125.039 64.8423C124.889 64.6918 124.814 64.5114 124.814 64.3011C124.814 64.0909 124.889 63.9105 125.039 63.7599C125.19 63.6094 125.37 63.5341 125.581 63.5341C125.791 63.5341 125.971 63.6094 126.122 63.7599C126.272 63.9105 126.348 64.0909 126.348 64.3011C126.348 64.4403 126.312 64.5682 126.241 64.6847C126.173 64.8011 126.081 64.8949 125.964 64.9659C125.85 65.0341 125.723 65.0682 125.581 65.0682ZM209.875 61.9318L204.386 64.7273V63.6364L208.596 61.608L208.562 61.6761V61.5057L208.596 61.5739L204.386 59.5455V58.4545L209.875 61.25V61.9318ZM117.21 76.9318V76.25L122.699 73.4545V74.5455L118.489 76.5739L118.523 76.5057V76.6761L118.489 76.608L122.699 78.6364V79.7273L117.21 76.9318ZM158.898 76.9318L153.409 79.7273V78.6364L157.62 76.608L157.586 76.6761V76.5057L157.62 76.5739L153.409 74.5455V73.4545L158.898 76.25V76.9318ZM117.21 91.9318V91.25L122.699 88.4545V89.5455L118.489 91.5739L118.523 91.5057V91.6761L118.489 91.608L122.699 93.6364V94.7273L117.21 91.9318ZM127.916 85.8636L125.103 96.3125H124.183L126.995 85.8636H127.916ZM163.175 91.9318L157.687 94.7273V93.6364L161.897 91.608L161.863 91.6761V91.5057L161.897 91.5739L157.687 89.5455V88.4545L163.175 91.25V91.9318ZM117.21 106.932V106.25L122.699 103.455V104.545L118.489 106.574L118.523 106.506V106.676L118.489 106.608L122.699 108.636V109.727L117.21 106.932ZM159.355 106.932L153.866 109.727V108.636L158.077 106.608L158.043 106.676V106.506L158.077 106.574L153.866 104.545V103.455L159.355 106.25V106.932ZM130.71 121.932V121.25L136.199 118.455V119.545L131.989 121.574L132.023 121.506V121.676L131.989 121.608L136.199 123.636V124.727L130.71 121.932ZM161.089 121.932L155.601 124.727V123.636L159.811 121.608L159.777 121.676V121.506L159.811 121.574L155.601 119.545V118.455L161.089 121.25V121.932ZM140.835 136.932V136.25L146.324 133.455V134.545L142.114 136.574L142.148 136.506V136.676L142.114 136.608L146.324 138.636V139.727L140.835 136.932ZM252.589 136.114L247.101 138.909V137.818L251.311 135.79L251.277 135.858V135.688L251.311 135.756L247.101 133.727V132.636L252.589 135.432V136.114ZM256.443 140L254.056 131.273H255.13L256.954 138.381H257.039L258.897 131.273H260.091L261.949 138.381H262.034L263.858 131.273H264.931L262.545 140H261.454L259.528 133.045H259.46L257.534 140H256.443ZM266.248 140V131.273H271.515V132.21H267.305V135.159H271.243V136.097H267.305V139.062H271.583V140H266.248ZM273.931 131.273L276.181 134.903H276.25L278.5 131.273H279.744L277 135.636L279.744 140H278.5L276.25 136.438H276.181L273.931 140H272.687L275.5 135.636L272.687 131.273H273.931ZM281.273 136.114V135.432L286.761 132.636V133.727L282.551 135.756L282.585 135.688V135.858L282.551 135.79L286.761 137.818V138.909L281.273 136.114ZM291.978 130.864L289.166 141.312H288.245L291.058 130.864H291.978ZM326.312 136.932L320.824 139.727V138.636L325.034 136.608L325 136.676V136.506L325.034 136.574L320.824 134.545V133.455L326.312 136.25V136.932ZM134.085 151.932V151.25L139.574 148.455V149.545L135.364 151.574L135.398 151.506V151.676L135.364 151.608L139.574 153.636V154.727L134.085 151.932ZM144.791 145.864L141.978 156.312H141.058L143.87 145.864H144.791ZM168.742 151.932L163.253 154.727V153.636L167.463 151.608L167.429 151.676V151.506L167.463 151.574L163.253 149.545V148.455L168.742 151.25V151.932ZM134.085 181.932V181.25L139.574 178.455V179.545L135.364 181.574L135.398 181.506V181.676L135.364 181.608L139.574 183.636V184.727L134.085 181.932ZM188.828 181.932L183.339 184.727V183.636L187.549 181.608L187.515 181.676V181.506L187.549 181.574L183.339 179.545V178.455L188.828 181.25V181.932ZM137.46 406.932V406.25L142.949 403.455V404.545L138.739 406.574L138.773 406.506V406.676L138.739 406.608L142.949 408.636V409.727L137.46 406.932ZM148.166 400.864L145.353 411.312H144.433L147.245 400.864H148.166ZM196.48 406.932L190.991 409.727V408.636L195.202 406.608L195.168 406.676V406.506L195.202 406.574L190.991 404.545V403.455L196.48 406.25V406.932ZM117.21 421.932V421.25L122.699 418.455V419.545L118.489 421.574L118.523 421.506V421.676L118.489 421.608L122.699 423.636V424.727L117.21 421.932ZM127.916 415.864L125.103 426.312H124.183L126.995 415.864H127.916ZM163.632 421.932L158.144 424.727V423.636L162.354 421.608L162.32 421.676V421.506L162.354 421.574L158.144 419.545V418.455L163.632 421.25V421.932ZM117.21 436.932V436.25L122.699 433.455V434.545L118.489 436.574L118.523 436.506V436.676L118.489 436.608L122.699 438.636V439.727L117.21 436.932ZM155.336 436.932L149.847 439.727V438.636L154.057 436.608L154.023 436.676V436.506L154.057 436.574L149.847 434.545V433.455L155.336 436.25V436.932Z" fill="white"/>
<path d="M131 65H128.307V56.2727H131.119C131.966 56.2727 132.69 56.4474 133.293 56.7969C133.895 57.1435 134.357 57.642 134.678 58.2926C134.999 58.9403 135.159 59.7159 135.159 60.6193C135.159 61.5284 134.997 62.3111 134.673 62.9673C134.349 63.6207 133.878 64.1236 133.259 64.4759C132.639 64.8253 131.886 65 131 65ZM129.364 64.0625H130.932C131.653 64.0625 132.251 63.9233 132.726 63.6449C133.2 63.3665 133.554 62.9702 133.787 62.456C134.02 61.9418 134.136 61.3295 134.136 60.6193C134.136 59.9148 134.021 59.3082 133.791 58.7997C133.561 58.2884 133.217 57.8963 132.76 57.6236C132.303 57.348 131.733 57.2102 131.051 57.2102H129.364V64.0625ZM139.455 65.1364C138.864 65.1364 138.345 64.9957 137.899 64.7145C137.456 64.4332 137.109 64.0398 136.859 63.5341C136.612 63.0284 136.489 62.4375 136.489 61.7614C136.489 61.0795 136.612 60.4844 136.859 59.9759C137.109 59.4673 137.456 59.0724 137.899 58.7912C138.345 58.5099 138.864 58.3693 139.455 58.3693C140.045 58.3693 140.563 58.5099 141.006 58.7912C141.452 59.0724 141.798 59.4673 142.045 59.9759C142.295 60.4844 142.42 61.0795 142.42 61.7614C142.42 62.4375 142.295 63.0284 142.045 63.5341C141.798 64.0398 141.452 64.4332 141.006 64.7145C140.563 64.9957 140.045 65.1364 139.455 65.1364ZM139.455 64.233C139.903 64.233 140.273 64.1179 140.562 63.8878C140.852 63.6577 141.067 63.3551 141.206 62.9801C141.345 62.6051 141.415 62.1989 141.415 61.7614C141.415 61.3239 141.345 60.9162 141.206 60.5384C141.067 60.1605 140.852 59.8551 140.562 59.6222C140.273 59.3892 139.903 59.2727 139.455 59.2727C139.006 59.2727 138.636 59.3892 138.347 59.6222C138.057 59.8551 137.842 60.1605 137.703 60.5384C137.564 60.9162 137.494 61.3239 137.494 61.7614C137.494 62.1989 137.564 62.6051 137.703 62.9801C137.842 63.3551 138.057 63.6577 138.347 63.8878C138.636 64.1179 139.006 64.233 139.455 64.233ZM146.615 65.1364C146.001 65.1364 145.473 64.9915 145.029 64.7017C144.586 64.4119 144.245 64.0128 144.007 63.5043C143.768 62.9957 143.649 62.4148 143.649 61.7614C143.649 61.0966 143.771 60.5099 144.015 60.0014C144.262 59.4901 144.606 59.0909 145.047 58.804C145.49 58.5142 146.007 58.3693 146.598 58.3693C147.058 58.3693 147.473 58.4545 147.842 58.625C148.211 58.7955 148.514 59.0341 148.75 59.3409C148.985 59.6477 149.132 60.0057 149.189 60.4148H148.183C148.106 60.1165 147.936 59.8523 147.672 59.6222C147.41 59.3892 147.058 59.2727 146.615 59.2727C146.223 59.2727 145.879 59.375 145.583 59.5795C145.291 59.7812 145.062 60.0668 144.897 60.4361C144.735 60.8026 144.654 61.233 144.654 61.7273C144.654 62.233 144.734 62.6733 144.893 63.0483C145.055 63.4233 145.282 63.7145 145.575 63.9219C145.87 64.1293 146.217 64.233 146.615 64.233C146.876 64.233 147.113 64.1875 147.326 64.0966C147.539 64.0057 147.72 63.875 147.868 63.7045C148.015 63.5341 148.12 63.3295 148.183 63.0909H149.189C149.132 63.4773 148.991 63.8253 148.767 64.1349C148.545 64.4418 148.251 64.6861 147.885 64.8679C147.521 65.0469 147.098 65.1364 146.615 65.1364ZM153.505 58.4545V59.3068H150.113V58.4545H153.505ZM151.102 56.8864H152.108V63.125C152.108 63.4091 152.149 63.6222 152.231 63.7642C152.316 63.9034 152.424 63.9972 152.555 64.0455C152.689 64.0909 152.829 64.1136 152.977 64.1136C153.088 64.1136 153.179 64.108 153.25 64.0966C153.321 64.0824 153.377 64.071 153.42 64.0625L153.625 64.9659C153.556 64.9915 153.461 65.017 153.339 65.0426C153.217 65.071 153.062 65.0852 152.875 65.0852C152.591 65.0852 152.312 65.0241 152.039 64.902C151.77 64.7798 151.545 64.5938 151.366 64.3438C151.19 64.0938 151.102 63.7784 151.102 63.3977V56.8864ZM155.666 67.4545C155.495 67.4545 155.343 67.4403 155.21 67.4119C155.076 67.3864 154.984 67.3608 154.933 67.3352L155.189 66.4489C155.433 66.5114 155.649 66.5341 155.836 66.517C156.024 66.5 156.19 66.4162 156.335 66.2656C156.483 66.1179 156.618 65.8778 156.74 65.5455L156.927 65.0341L154.507 58.4545H155.598L157.404 63.6705H157.473L159.279 58.4545H160.37L157.592 65.9545C157.467 66.2926 157.312 66.5724 157.127 66.794C156.943 67.0185 156.728 67.1847 156.484 67.2926C156.243 67.4006 155.97 67.4545 155.666 67.4545ZM161.698 67.4545V58.4545H162.669V59.4943H162.789C162.863 59.3807 162.965 59.2358 163.096 59.0597C163.229 58.8807 163.419 58.7216 163.667 58.5824C163.917 58.4403 164.255 58.3693 164.681 58.3693C165.232 58.3693 165.718 58.5071 166.138 58.7827C166.559 59.0582 166.887 59.4489 167.123 59.9545C167.358 60.4602 167.476 61.0568 167.476 61.7443C167.476 62.4375 167.358 63.0384 167.123 63.5469C166.887 64.0526 166.56 64.4446 166.142 64.723C165.725 64.9986 165.243 65.1364 164.698 65.1364C164.277 65.1364 163.941 65.0668 163.688 64.9276C163.435 64.7855 163.24 64.625 163.104 64.446C162.968 64.2642 162.863 64.1136 162.789 63.9943H162.703V67.4545H161.698ZM162.686 61.7273C162.686 62.2216 162.759 62.6577 162.904 63.0355C163.049 63.4105 163.26 63.7045 163.539 63.9176C163.817 64.1278 164.158 64.233 164.561 64.233C164.982 64.233 165.333 64.1222 165.614 63.9006C165.898 63.6761 166.111 63.375 166.253 62.9972C166.398 62.6165 166.471 62.1932 166.471 61.7273C166.471 61.267 166.4 60.8523 166.257 60.483C166.118 60.1108 165.907 59.8168 165.623 59.6009C165.341 59.3821 164.988 59.2727 164.561 59.2727C164.152 59.2727 163.809 59.3764 163.53 59.5838C163.252 59.7884 163.042 60.0753 162.9 60.4446C162.757 60.8111 162.686 61.2386 162.686 61.7273ZM171.755 65.1364C171.124 65.1364 170.58 64.9972 170.123 64.7188C169.668 64.4375 169.317 64.0455 169.07 63.5426C168.826 63.0369 168.703 62.4489 168.703 61.7784C168.703 61.108 168.826 60.517 169.07 60.0057C169.317 59.4915 169.661 59.0909 170.101 58.804C170.544 58.5142 171.061 58.3693 171.652 58.3693C171.993 58.3693 172.33 58.4261 172.662 58.5398C172.995 58.6534 173.297 58.8381 173.57 59.0938C173.843 59.3466 174.06 59.6818 174.222 60.0994C174.384 60.517 174.465 61.0312 174.465 61.642V62.0682H169.419V61.1989H173.442C173.442 60.8295 173.368 60.5 173.221 60.2102C173.076 59.9205 172.868 59.6918 172.598 59.5241C172.331 59.3565 172.016 59.2727 171.652 59.2727C171.252 59.2727 170.905 59.3722 170.613 59.571C170.323 59.767 170.1 60.0227 169.944 60.3381C169.787 60.6534 169.709 60.9915 169.709 61.3523V61.9318C169.709 62.4261 169.794 62.8452 169.965 63.1889C170.138 63.5298 170.378 63.7898 170.685 63.9688C170.992 64.1449 171.348 64.233 171.755 64.233C172.019 64.233 172.257 64.196 172.471 64.1222C172.686 64.0455 172.873 63.9318 173.029 63.7812C173.185 63.6278 173.306 63.4375 173.391 63.2102L174.363 63.483C174.26 63.8125 174.088 64.1023 173.847 64.3523C173.605 64.5994 173.307 64.7926 172.952 64.9318C172.597 65.0682 172.198 65.1364 171.755 65.1364ZM125.836 76.0625V80H124.831V71.2727H125.836V74.4773H125.922C126.075 74.1392 126.305 73.8707 126.612 73.6719C126.922 73.4702 127.333 73.3693 127.848 73.3693C128.294 73.3693 128.684 73.4588 129.02 73.6378C129.355 73.8139 129.615 74.0852 129.799 74.4517C129.987 74.8153 130.081 75.2784 130.081 75.8409V80H129.075V75.9091C129.075 75.3892 128.94 74.9872 128.67 74.7031C128.403 74.4162 128.032 74.2727 127.558 74.2727C127.228 74.2727 126.933 74.3423 126.672 74.4815C126.413 74.6207 126.208 74.8239 126.058 75.0909C125.91 75.358 125.836 75.6818 125.836 76.0625ZM134.665 80.1364C134.034 80.1364 133.49 79.9972 133.033 79.7188C132.578 79.4375 132.227 79.0455 131.98 78.5426C131.736 78.0369 131.614 77.4489 131.614 76.7784C131.614 76.108 131.736 75.517 131.98 75.0057C132.227 74.4915 132.571 74.0909 133.011 73.804C133.455 73.5142 133.972 73.3693 134.562 73.3693C134.903 73.3693 135.24 73.4261 135.572 73.5398C135.905 73.6534 136.207 73.8381 136.48 74.0938C136.753 74.3466 136.97 74.6818 137.132 75.0994C137.294 75.517 137.375 76.0312 137.375 76.642V77.0682H132.33V76.1989H136.352C136.352 75.8295 136.278 75.5 136.131 75.2102C135.986 74.9205 135.778 74.6918 135.509 74.5241C135.241 74.3565 134.926 74.2727 134.562 74.2727C134.162 74.2727 133.815 74.3722 133.523 74.571C133.233 74.767 133.01 75.0227 132.854 75.3381C132.697 75.6534 132.619 75.9915 132.619 76.3523V76.9318C132.619 77.4261 132.705 77.8452 132.875 78.1889C133.048 78.5298 133.288 78.7898 133.595 78.9688C133.902 79.1449 134.259 79.233 134.665 79.233C134.929 79.233 135.168 79.196 135.381 79.1222C135.597 79.0455 135.783 78.9318 135.939 78.7812C136.095 78.6278 136.216 78.4375 136.301 78.2102L137.273 78.483C137.17 78.8125 136.999 79.1023 136.757 79.3523C136.516 79.5994 136.217 79.7926 135.862 79.9318C135.507 80.0682 135.108 80.1364 134.665 80.1364ZM140.831 80.1534C140.416 80.1534 140.04 80.0753 139.702 79.919C139.364 79.7599 139.095 79.5312 138.896 79.233C138.697 78.9318 138.598 78.5682 138.598 78.142C138.598 77.767 138.672 77.4631 138.82 77.2301C138.967 76.9943 139.165 76.8097 139.412 76.6761C139.659 76.5426 139.932 76.4432 140.23 76.3778C140.531 76.3097 140.834 76.2557 141.138 76.2159C141.536 76.1648 141.858 76.1264 142.105 76.1009C142.355 76.0724 142.537 76.0256 142.651 75.9602C142.767 75.8949 142.825 75.7812 142.825 75.6193V75.5852C142.825 75.1648 142.71 74.8381 142.48 74.6051C142.253 74.3722 141.908 74.2557 141.445 74.2557C140.964 74.2557 140.588 74.3608 140.315 74.571C140.043 74.7812 139.851 75.0057 139.74 75.2443L138.786 74.9034C138.956 74.5057 139.183 74.196 139.467 73.9744C139.754 73.75 140.067 73.5937 140.405 73.5057C140.746 73.4148 141.081 73.3693 141.411 73.3693C141.621 73.3693 141.862 73.3949 142.135 73.446C142.411 73.4943 142.676 73.5952 142.932 73.7486C143.19 73.902 143.405 74.1335 143.575 74.4432C143.746 74.7528 143.831 75.1676 143.831 75.6875V80H142.825V79.1136H142.774C142.706 79.2557 142.592 79.4077 142.433 79.5696C142.274 79.7315 142.063 79.8693 141.798 79.983C141.534 80.0966 141.212 80.1534 140.831 80.1534ZM140.984 79.25C141.382 79.25 141.717 79.1719 141.99 79.0156C142.266 78.8594 142.473 78.6577 142.612 78.4105C142.754 78.1634 142.825 77.9034 142.825 77.6307V76.7102C142.783 76.7614 142.689 76.8082 142.544 76.8509C142.402 76.8906 142.237 76.9261 142.05 76.9574C141.865 76.9858 141.685 77.0114 141.509 77.0341C141.335 77.054 141.195 77.071 141.087 77.0852C140.825 77.1193 140.581 77.1747 140.354 77.2514C140.129 77.3253 139.947 77.4375 139.808 77.5881C139.672 77.7358 139.604 77.9375 139.604 78.1932C139.604 78.5426 139.733 78.8068 139.991 78.9858C140.253 79.1619 140.584 79.25 140.984 79.25ZM148.138 80.1364C147.593 80.1364 147.111 79.9986 146.694 79.723C146.276 79.4446 145.949 79.0526 145.713 78.5469C145.478 78.0384 145.36 77.4375 145.36 76.7443C145.36 76.0568 145.478 75.4602 145.713 74.9545C145.949 74.4489 146.277 74.0582 146.698 73.7827C147.118 73.5071 147.604 73.3693 148.155 73.3693C148.581 73.3693 148.918 73.4403 149.165 73.5824C149.415 73.7216 149.605 73.8807 149.736 74.0597C149.87 74.2358 149.973 74.3807 150.047 74.4943H150.132V71.2727H151.138V80H150.167V78.9943H150.047C149.973 79.1136 149.868 79.2642 149.732 79.446C149.596 79.625 149.401 79.7855 149.148 79.9276C148.895 80.0668 148.559 80.1364 148.138 80.1364ZM148.275 79.233C148.678 79.233 149.019 79.1278 149.297 78.9176C149.576 78.7045 149.787 78.4105 149.932 78.0355C150.077 77.6577 150.15 77.2216 150.15 76.7273C150.15 76.2386 150.078 75.8111 149.936 75.4446C149.794 75.0753 149.584 74.7884 149.306 74.5838C149.027 74.3764 148.684 74.2727 148.275 74.2727C147.848 74.2727 147.493 74.3821 147.209 74.6009C146.928 74.8168 146.716 75.1108 146.574 75.483C146.435 75.8523 146.365 76.267 146.365 76.7273C146.365 77.1932 146.436 77.6165 146.578 77.9972C146.723 78.375 146.936 78.6761 147.218 78.9006C147.502 79.1222 147.854 79.233 148.275 79.233ZM130.114 91.0625V95H129.108V86.2727H130.114V89.4773H130.199C130.352 89.1392 130.582 88.8707 130.889 88.6719C131.199 88.4702 131.611 88.3693 132.125 88.3693C132.571 88.3693 132.962 88.4588 133.297 88.6378C133.632 88.8139 133.892 89.0852 134.077 89.4517C134.264 89.8153 134.358 90.2784 134.358 90.8409V95H133.352V90.9091C133.352 90.3892 133.217 89.9872 132.947 89.7031C132.68 89.4162 132.31 89.2727 131.835 89.2727C131.506 89.2727 131.21 89.3423 130.949 89.4815C130.69 89.6207 130.486 89.8239 130.335 90.0909C130.188 90.358 130.114 90.6818 130.114 91.0625ZM138.942 95.1364C138.311 95.1364 137.767 94.9972 137.31 94.7188C136.855 94.4375 136.505 94.0455 136.257 93.5426C136.013 93.0369 135.891 92.4489 135.891 91.7784C135.891 91.108 136.013 90.517 136.257 90.0057C136.505 89.4915 136.848 89.0909 137.289 88.804C137.732 88.5142 138.249 88.3693 138.84 88.3693C139.181 88.3693 139.517 88.4261 139.85 88.5398C140.182 88.6534 140.485 88.8381 140.757 89.0938C141.03 89.3466 141.248 89.6818 141.409 90.0994C141.571 90.517 141.652 91.0312 141.652 91.642V92.0682H136.607V91.1989H140.63C140.63 90.8295 140.556 90.5 140.408 90.2102C140.263 89.9205 140.056 89.6918 139.786 89.5241C139.519 89.3565 139.203 89.2727 138.84 89.2727C138.439 89.2727 138.093 89.3722 137.8 89.571C137.51 89.767 137.287 90.0227 137.131 90.3381C136.975 90.6534 136.897 90.9915 136.897 91.3523V91.9318C136.897 92.4261 136.982 92.8452 137.152 93.1889C137.326 93.5298 137.566 93.7898 137.873 93.9688C138.179 94.1449 138.536 94.233 138.942 94.233C139.206 94.233 139.445 94.196 139.658 94.1222C139.874 94.0455 140.06 93.9318 140.216 93.7812C140.373 93.6278 140.493 93.4375 140.578 93.2102L141.55 93.483C141.448 93.8125 141.276 94.1023 141.034 94.3523C140.793 94.5994 140.495 94.7926 140.14 94.9318C139.784 95.0682 139.385 95.1364 138.942 95.1364ZM145.108 95.1534C144.694 95.1534 144.317 95.0753 143.979 94.919C143.641 94.7599 143.373 94.5312 143.174 94.233C142.975 93.9318 142.875 93.5682 142.875 93.142C142.875 92.767 142.949 92.4631 143.097 92.2301C143.245 91.9943 143.442 91.8097 143.689 91.6761C143.936 91.5426 144.209 91.4432 144.507 91.3778C144.809 91.3097 145.111 91.2557 145.415 91.2159C145.813 91.1648 146.135 91.1264 146.382 91.1009C146.632 91.0724 146.814 91.0256 146.928 90.9602C147.044 90.8949 147.103 90.7812 147.103 90.6193V90.5852C147.103 90.1648 146.988 89.8381 146.757 89.6051C146.53 89.3722 146.185 89.2557 145.722 89.2557C145.242 89.2557 144.865 89.3608 144.593 89.571C144.32 89.7812 144.128 90.0057 144.017 90.2443L143.063 89.9034C143.233 89.5057 143.461 89.196 143.745 88.9744C144.032 88.75 144.344 88.5937 144.682 88.5057C145.023 88.4148 145.358 88.3693 145.688 88.3693C145.898 88.3693 146.14 88.3949 146.412 88.446C146.688 88.4943 146.953 88.5952 147.209 88.7486C147.468 88.902 147.682 89.1335 147.853 89.4432C148.023 89.7528 148.108 90.1676 148.108 90.6875V95H147.103V94.1136H147.051C146.983 94.2557 146.87 94.4077 146.711 94.5696C146.551 94.7315 146.34 94.8693 146.076 94.983C145.811 95.0966 145.489 95.1534 145.108 95.1534ZM145.262 94.25C145.659 94.25 145.995 94.1719 146.267 94.0156C146.543 93.8594 146.75 93.6577 146.89 93.4105C147.032 93.1634 147.103 92.9034 147.103 92.6307V91.7102C147.06 91.7614 146.966 91.8082 146.821 91.8509C146.679 91.8906 146.515 91.9261 146.327 91.9574C146.142 91.9858 145.962 92.0114 145.786 92.0341C145.613 92.054 145.472 92.071 145.364 92.0852C145.103 92.1193 144.858 92.1747 144.631 92.2514C144.407 92.3253 144.225 92.4375 144.086 92.5881C143.949 92.7358 143.881 92.9375 143.881 93.1932C143.881 93.5426 144.01 93.8068 144.269 93.9858C144.53 94.1619 144.861 94.25 145.262 94.25ZM152.415 95.1364C151.87 95.1364 151.388 94.9986 150.971 94.723C150.553 94.4446 150.227 94.0526 149.991 93.5469C149.755 93.0384 149.637 92.4375 149.637 91.7443C149.637 91.0568 149.755 90.4602 149.991 89.9545C150.227 89.4489 150.555 89.0582 150.975 88.7827C151.396 88.5071 151.881 88.3693 152.433 88.3693C152.859 88.3693 153.195 88.4403 153.442 88.5824C153.692 88.7216 153.883 88.8807 154.013 89.0597C154.147 89.2358 154.251 89.3807 154.325 89.4943H154.41V86.2727H155.415V95H154.444V93.9943H154.325C154.251 94.1136 154.146 94.2642 154.009 94.446C153.873 94.625 153.678 94.7855 153.425 94.9276C153.173 95.0668 152.836 95.1364 152.415 95.1364ZM152.552 94.233C152.955 94.233 153.296 94.1278 153.575 93.9176C153.853 93.7045 154.065 93.4105 154.21 93.0355C154.354 92.6577 154.427 92.2216 154.427 91.7273C154.427 91.2386 154.356 90.8111 154.214 90.4446C154.072 90.0753 153.862 89.7884 153.583 89.5838C153.305 89.3764 152.961 89.2727 152.552 89.2727C152.126 89.2727 151.771 89.3821 151.487 89.6009C151.205 89.8168 150.994 90.1108 150.852 90.483C150.712 90.8523 150.643 91.267 150.643 91.7273C150.643 92.1932 150.714 92.6165 150.856 92.9972C151.001 93.375 151.214 93.6761 151.495 93.9006C151.779 94.1222 152.131 94.233 152.552 94.233ZM124.967 110V101.273H125.973V104.494H126.058C126.132 104.381 126.234 104.236 126.365 104.06C126.498 103.881 126.689 103.722 126.936 103.582C127.186 103.44 127.524 103.369 127.95 103.369C128.501 103.369 128.987 103.507 129.407 103.783C129.828 104.058 130.156 104.449 130.392 104.955C130.627 105.46 130.745 106.057 130.745 106.744C130.745 107.438 130.627 108.038 130.392 108.547C130.156 109.053 129.829 109.445 129.412 109.723C128.994 109.999 128.512 110.136 127.967 110.136C127.547 110.136 127.21 110.067 126.957 109.928C126.704 109.786 126.51 109.625 126.373 109.446C126.237 109.264 126.132 109.114 126.058 108.994H125.939V110H124.967ZM125.956 106.727C125.956 107.222 126.028 107.658 126.173 108.036C126.318 108.411 126.529 108.705 126.808 108.918C127.086 109.128 127.427 109.233 127.831 109.233C128.251 109.233 128.602 109.122 128.883 108.901C129.167 108.676 129.38 108.375 129.522 107.997C129.667 107.616 129.74 107.193 129.74 106.727C129.74 106.267 129.669 105.852 129.527 105.483C129.387 105.111 129.176 104.817 128.892 104.601C128.61 104.382 128.257 104.273 127.831 104.273C127.422 104.273 127.078 104.376 126.799 104.584C126.521 104.788 126.311 105.075 126.169 105.445C126.027 105.811 125.956 106.239 125.956 106.727ZM134.943 110.136C134.352 110.136 133.833 109.996 133.387 109.714C132.944 109.433 132.598 109.04 132.348 108.534C132.1 108.028 131.977 107.437 131.977 106.761C131.977 106.08 132.1 105.484 132.348 104.976C132.598 104.467 132.944 104.072 133.387 103.791C133.833 103.51 134.352 103.369 134.943 103.369C135.534 103.369 136.051 103.51 136.494 103.791C136.94 104.072 137.287 104.467 137.534 104.976C137.784 105.484 137.909 106.08 137.909 106.761C137.909 107.437 137.784 108.028 137.534 108.534C137.287 109.04 136.94 109.433 136.494 109.714C136.051 109.996 135.534 110.136 134.943 110.136ZM134.943 109.233C135.392 109.233 135.761 109.118 136.051 108.888C136.341 108.658 136.555 108.355 136.694 107.98C136.833 107.605 136.903 107.199 136.903 106.761C136.903 106.324 136.833 105.916 136.694 105.538C136.555 105.161 136.341 104.855 136.051 104.622C135.761 104.389 135.392 104.273 134.943 104.273C134.494 104.273 134.125 104.389 133.835 104.622C133.545 104.855 133.331 105.161 133.191 105.538C133.052 105.916 132.983 106.324 132.983 106.761C132.983 107.199 133.052 107.605 133.191 107.98C133.331 108.355 133.545 108.658 133.835 108.888C134.125 109.118 134.494 109.233 134.943 109.233ZM141.915 110.136C141.37 110.136 140.888 109.999 140.471 109.723C140.053 109.445 139.727 109.053 139.491 108.547C139.255 108.038 139.137 107.438 139.137 106.744C139.137 106.057 139.255 105.46 139.491 104.955C139.727 104.449 140.055 104.058 140.475 103.783C140.896 103.507 141.381 103.369 141.933 103.369C142.359 103.369 142.695 103.44 142.942 103.582C143.192 103.722 143.383 103.881 143.513 104.06C143.647 104.236 143.751 104.381 143.825 104.494H143.91V101.273H144.915V110H143.944V108.994H143.825C143.751 109.114 143.646 109.264 143.509 109.446C143.373 109.625 143.178 109.786 142.925 109.928C142.673 110.067 142.336 110.136 141.915 110.136ZM142.052 109.233C142.455 109.233 142.796 109.128 143.075 108.918C143.353 108.705 143.565 108.411 143.71 108.036C143.854 107.658 143.927 107.222 143.927 106.727C143.927 106.239 143.856 105.811 143.714 105.445C143.572 105.075 143.362 104.788 143.083 104.584C142.805 104.376 142.461 104.273 142.052 104.273C141.626 104.273 141.271 104.382 140.987 104.601C140.705 104.817 140.494 105.111 140.352 105.483C140.212 105.852 140.143 106.267 140.143 106.727C140.143 107.193 140.214 107.616 140.356 107.997C140.501 108.375 140.714 108.676 140.995 108.901C141.279 109.122 141.631 109.233 142.052 109.233ZM147.545 112.455C147.374 112.455 147.222 112.44 147.089 112.412C146.955 112.386 146.863 112.361 146.812 112.335L147.067 111.449C147.312 111.511 147.528 111.534 147.715 111.517C147.903 111.5 148.069 111.416 148.214 111.266C148.362 111.118 148.496 110.878 148.619 110.545L148.806 110.034L146.386 103.455H147.477L149.283 108.67H149.352L151.158 103.455H152.249L149.471 110.955C149.346 111.293 149.191 111.572 149.006 111.794C148.822 112.018 148.607 112.185 148.363 112.293C148.121 112.401 147.849 112.455 147.545 112.455ZM140.802 125.136C140.257 125.136 139.775 124.999 139.358 124.723C138.94 124.445 138.613 124.053 138.377 123.547C138.142 123.038 138.024 122.438 138.024 121.744C138.024 121.057 138.142 120.46 138.377 119.955C138.613 119.449 138.941 119.058 139.362 118.783C139.782 118.507 140.268 118.369 140.819 118.369C141.245 118.369 141.582 118.44 141.829 118.582C142.079 118.722 142.27 118.881 142.4 119.06C142.534 119.236 142.637 119.381 142.711 119.494H142.797V116.273H143.802V125H142.831V123.994H142.711C142.637 124.114 142.532 124.264 142.396 124.446C142.26 124.625 142.065 124.786 141.812 124.928C141.559 125.067 141.223 125.136 140.802 125.136ZM140.939 124.233C141.342 124.233 141.683 124.128 141.961 123.918C142.24 123.705 142.451 123.411 142.596 123.036C142.741 122.658 142.814 122.222 142.814 121.727C142.814 121.239 142.743 120.811 142.6 120.445C142.458 120.075 142.248 119.788 141.97 119.584C141.691 119.376 141.348 119.273 140.939 119.273C140.512 119.273 140.157 119.382 139.873 119.601C139.592 119.817 139.38 120.111 139.238 120.483C139.099 120.852 139.029 121.267 139.029 121.727C139.029 122.193 139.1 122.616 139.243 122.997C139.387 123.375 139.6 123.676 139.882 123.901C140.166 124.122 140.518 124.233 140.939 124.233ZM145.784 125V118.455H146.789V125H145.784ZM146.295 117.364C146.099 117.364 145.93 117.297 145.788 117.163C145.649 117.03 145.579 116.869 145.579 116.682C145.579 116.494 145.649 116.334 145.788 116.2C145.93 116.067 146.099 116 146.295 116C146.491 116 146.659 116.067 146.798 116.2C146.94 116.334 147.011 116.494 147.011 116.682C147.011 116.869 146.94 117.03 146.798 117.163C146.659 117.297 146.491 117.364 146.295 117.364ZM153.984 118.455L151.563 125H150.54L148.12 118.455H149.211L151.018 123.67H151.086L152.893 118.455H153.984ZM153.092 134.92L152.189 135.176C152.132 135.026 152.048 134.879 151.937 134.737C151.829 134.592 151.681 134.473 151.494 134.379C151.306 134.286 151.066 134.239 150.774 134.239C150.373 134.239 150.039 134.331 149.772 134.516C149.508 134.697 149.376 134.929 149.376 135.21C149.376 135.46 149.467 135.658 149.649 135.803C149.831 135.947 150.115 136.068 150.501 136.165L151.473 136.403C152.058 136.545 152.494 136.763 152.781 137.055C153.068 137.345 153.211 137.719 153.211 138.176C153.211 138.551 153.103 138.886 152.887 139.182C152.674 139.477 152.376 139.71 151.993 139.881C151.609 140.051 151.163 140.136 150.654 140.136C149.987 140.136 149.434 139.991 148.997 139.702C148.559 139.412 148.282 138.989 148.166 138.432L149.12 138.193C149.211 138.545 149.383 138.81 149.636 138.986C149.892 139.162 150.225 139.25 150.637 139.25C151.106 139.25 151.478 139.151 151.754 138.952C152.032 138.75 152.172 138.509 152.172 138.227C152.172 138 152.092 137.81 151.933 137.656C151.774 137.5 151.529 137.384 151.2 137.307L150.109 137.051C149.51 136.909 149.069 136.689 148.788 136.391C148.51 136.089 148.37 135.713 148.37 135.261C148.37 134.892 148.474 134.565 148.681 134.281C148.892 133.997 149.177 133.774 149.538 133.612C149.902 133.45 150.314 133.369 150.774 133.369C151.422 133.369 151.93 133.511 152.299 133.795C152.672 134.08 152.936 134.455 153.092 134.92ZM154.725 142.455V133.455H155.697V134.494H155.816C155.89 134.381 155.992 134.236 156.123 134.06C156.256 133.881 156.447 133.722 156.694 133.582C156.944 133.44 157.282 133.369 157.708 133.369C158.259 133.369 158.745 133.507 159.165 133.783C159.586 134.058 159.914 134.449 160.15 134.955C160.386 135.46 160.504 136.057 160.504 136.744C160.504 137.438 160.386 138.038 160.15 138.547C159.914 139.053 159.587 139.445 159.17 139.723C158.752 139.999 158.271 140.136 157.725 140.136C157.305 140.136 156.968 140.067 156.715 139.928C156.462 139.786 156.268 139.625 156.131 139.446C155.995 139.264 155.89 139.114 155.816 138.994H155.731V142.455H154.725ZM155.714 136.727C155.714 137.222 155.786 137.658 155.931 138.036C156.076 138.411 156.288 138.705 156.566 138.918C156.844 139.128 157.185 139.233 157.589 139.233C158.009 139.233 158.36 139.122 158.641 138.901C158.925 138.676 159.138 138.375 159.281 137.997C159.425 137.616 159.498 137.193 159.498 136.727C159.498 136.267 159.427 135.852 159.285 135.483C159.146 135.111 158.934 134.817 158.65 134.601C158.369 134.382 158.015 134.273 157.589 134.273C157.18 134.273 156.836 134.376 156.558 134.584C156.279 134.788 156.069 135.075 155.927 135.445C155.785 135.811 155.714 136.239 155.714 136.727ZM163.964 140.153C163.549 140.153 163.173 140.075 162.835 139.919C162.496 139.76 162.228 139.531 162.029 139.233C161.83 138.932 161.731 138.568 161.731 138.142C161.731 137.767 161.805 137.463 161.952 137.23C162.1 136.994 162.298 136.81 162.545 136.676C162.792 136.543 163.065 136.443 163.363 136.378C163.664 136.31 163.967 136.256 164.271 136.216C164.668 136.165 164.991 136.126 165.238 136.101C165.488 136.072 165.67 136.026 165.783 135.96C165.9 135.895 165.958 135.781 165.958 135.619V135.585C165.958 135.165 165.843 134.838 165.613 134.605C165.386 134.372 165.04 134.256 164.577 134.256C164.097 134.256 163.721 134.361 163.448 134.571C163.175 134.781 162.984 135.006 162.873 135.244L161.918 134.903C162.089 134.506 162.316 134.196 162.6 133.974C162.887 133.75 163.2 133.594 163.538 133.506C163.879 133.415 164.214 133.369 164.543 133.369C164.754 133.369 164.995 133.395 165.268 133.446C165.543 133.494 165.809 133.595 166.065 133.749C166.323 133.902 166.538 134.134 166.708 134.443C166.879 134.753 166.964 135.168 166.964 135.688V140H165.958V139.114H165.907C165.839 139.256 165.725 139.408 165.566 139.57C165.407 139.732 165.195 139.869 164.931 139.983C164.667 140.097 164.344 140.153 163.964 140.153ZM164.117 139.25C164.515 139.25 164.85 139.172 165.123 139.016C165.398 138.859 165.606 138.658 165.745 138.411C165.887 138.163 165.958 137.903 165.958 137.631V136.71C165.915 136.761 165.822 136.808 165.677 136.851C165.535 136.891 165.37 136.926 165.183 136.957C164.998 136.986 164.817 137.011 164.641 137.034C164.468 137.054 164.327 137.071 164.219 137.085C163.958 137.119 163.714 137.175 163.487 137.251C163.262 137.325 163.08 137.437 162.941 137.588C162.805 137.736 162.737 137.937 162.737 138.193C162.737 138.543 162.866 138.807 163.124 138.986C163.386 139.162 163.717 139.25 164.117 139.25ZM169.805 136.062V140H168.799V133.455H169.771V134.477H169.856C170.01 134.145 170.243 133.878 170.555 133.676C170.868 133.472 171.271 133.369 171.765 133.369C172.208 133.369 172.596 133.46 172.929 133.642C173.261 133.821 173.52 134.094 173.704 134.46C173.889 134.824 173.981 135.284 173.981 135.841V140H172.975V135.909C172.975 135.395 172.842 134.994 172.575 134.707C172.308 134.418 171.941 134.273 171.475 134.273C171.154 134.273 170.868 134.342 170.615 134.482C170.365 134.621 170.167 134.824 170.022 135.091C169.877 135.358 169.805 135.682 169.805 136.062ZM208.455 135.79V134.869H213.705V135.79H208.455ZM208.455 138.312V137.392H213.705V138.312H208.455ZM297.807 134.92L296.903 135.176C296.847 135.026 296.763 134.879 296.652 134.737C296.544 134.592 296.396 134.473 296.209 134.379C296.021 134.286 295.781 134.239 295.489 134.239C295.088 134.239 294.754 134.331 294.487 134.516C294.223 134.697 294.091 134.929 294.091 135.21C294.091 135.46 294.182 135.658 294.364 135.803C294.545 135.947 294.83 136.068 295.216 136.165L296.188 136.403C296.773 136.545 297.209 136.763 297.496 137.055C297.783 137.345 297.926 137.719 297.926 138.176C297.926 138.551 297.818 138.886 297.602 139.182C297.389 139.477 297.091 139.71 296.707 139.881C296.324 140.051 295.878 140.136 295.369 140.136C294.702 140.136 294.149 139.991 293.712 139.702C293.274 139.412 292.997 138.989 292.881 138.432L293.835 138.193C293.926 138.545 294.098 138.81 294.351 138.986C294.607 139.162 294.94 139.25 295.352 139.25C295.821 139.25 296.193 139.151 296.469 138.952C296.747 138.75 296.886 138.509 296.886 138.227C296.886 138 296.807 137.81 296.648 137.656C296.489 137.5 296.244 137.384 295.915 137.307L294.824 137.051C294.224 136.909 293.784 136.689 293.503 136.391C293.224 136.089 293.085 135.713 293.085 135.261C293.085 134.892 293.189 134.565 293.396 134.281C293.607 133.997 293.892 133.774 294.253 133.612C294.616 133.45 295.028 133.369 295.489 133.369C296.136 133.369 296.645 133.511 297.014 133.795C297.386 134.08 297.651 134.455 297.807 134.92ZM299.44 142.455V133.455H300.412V134.494H300.531C300.605 134.381 300.707 134.236 300.838 134.06C300.971 133.881 301.162 133.722 301.409 133.582C301.659 133.44 301.997 133.369 302.423 133.369C302.974 133.369 303.46 133.507 303.88 133.783C304.301 134.058 304.629 134.449 304.865 134.955C305.1 135.46 305.218 136.057 305.218 136.744C305.218 137.438 305.1 138.038 304.865 138.547C304.629 139.053 304.302 139.445 303.885 139.723C303.467 139.999 302.985 140.136 302.44 140.136C302.02 140.136 301.683 140.067 301.43 139.928C301.177 139.786 300.983 139.625 300.846 139.446C300.71 139.264 300.605 139.114 300.531 138.994H300.446V142.455H299.44ZM300.429 136.727C300.429 137.222 300.501 137.658 300.646 138.036C300.791 138.411 301.002 138.705 301.281 138.918C301.559 139.128 301.9 139.233 302.304 139.233C302.724 139.233 303.075 139.122 303.356 138.901C303.64 138.676 303.853 138.375 303.995 137.997C304.14 137.616 304.213 137.193 304.213 136.727C304.213 136.267 304.142 135.852 304 135.483C303.86 135.111 303.649 134.817 303.365 134.601C303.083 134.382 302.73 134.273 302.304 134.273C301.895 134.273 301.551 134.376 301.272 134.584C300.994 134.788 300.784 135.075 300.642 135.445C300.5 135.811 300.429 136.239 300.429 136.727ZM308.679 140.153C308.264 140.153 307.887 140.075 307.549 139.919C307.211 139.76 306.943 139.531 306.744 139.233C306.545 138.932 306.446 138.568 306.446 138.142C306.446 137.767 306.52 137.463 306.667 137.23C306.815 136.994 307.012 136.81 307.26 136.676C307.507 136.543 307.779 136.443 308.078 136.378C308.379 136.31 308.681 136.256 308.985 136.216C309.383 136.165 309.706 136.126 309.953 136.101C310.203 136.072 310.385 136.026 310.498 135.96C310.615 135.895 310.673 135.781 310.673 135.619V135.585C310.673 135.165 310.558 134.838 310.328 134.605C310.1 134.372 309.755 134.256 309.292 134.256C308.812 134.256 308.436 134.361 308.163 134.571C307.89 134.781 307.699 135.006 307.588 135.244L306.633 134.903C306.804 134.506 307.031 134.196 307.315 133.974C307.602 133.75 307.914 133.594 308.252 133.506C308.593 133.415 308.929 133.369 309.258 133.369C309.468 133.369 309.71 133.395 309.983 133.446C310.258 133.494 310.524 133.595 310.779 133.749C311.038 133.902 311.252 134.134 311.423 134.443C311.593 134.753 311.679 135.168 311.679 135.688V140H310.673V139.114H310.622C310.554 139.256 310.44 139.408 310.281 139.57C310.122 139.732 309.91 139.869 309.646 139.983C309.382 140.097 309.059 140.153 308.679 140.153ZM308.832 139.25C309.23 139.25 309.565 139.172 309.838 139.016C310.113 138.859 310.321 138.658 310.46 138.411C310.602 138.163 310.673 137.903 310.673 137.631V136.71C310.63 136.761 310.537 136.808 310.392 136.851C310.25 136.891 310.085 136.926 309.897 136.957C309.713 136.986 309.532 137.011 309.356 137.034C309.183 137.054 309.042 137.071 308.934 137.085C308.673 137.119 308.429 137.175 308.201 137.251C307.977 137.325 307.795 137.437 307.656 137.588C307.52 137.736 307.451 137.937 307.451 138.193C307.451 138.543 307.581 138.807 307.839 138.986C308.1 139.162 308.431 139.25 308.832 139.25ZM314.52 136.062V140H313.514V133.455H314.486V134.477H314.571C314.724 134.145 314.957 133.878 315.27 133.676C315.582 133.472 315.986 133.369 316.48 133.369C316.923 133.369 317.311 133.46 317.643 133.642C317.976 133.821 318.234 134.094 318.419 134.46C318.604 134.824 318.696 135.284 318.696 135.841V140H317.69V135.909C317.69 135.395 317.557 134.994 317.29 134.707C317.023 134.418 316.656 134.273 316.19 134.273C315.869 134.273 315.582 134.342 315.33 134.482C315.08 134.621 314.882 134.824 314.737 135.091C314.592 135.358 314.52 135.682 314.52 136.062ZM148.455 155.136C147.909 155.136 147.428 154.999 147.01 154.723C146.592 154.445 146.266 154.053 146.03 153.547C145.794 153.038 145.676 152.438 145.676 151.744C145.676 151.057 145.794 150.46 146.03 149.955C146.266 149.449 146.594 149.058 147.014 148.783C147.435 148.507 147.92 148.369 148.472 148.369C148.898 148.369 149.234 148.44 149.482 148.582C149.732 148.722 149.922 148.881 150.053 149.06C150.186 149.236 150.29 149.381 150.364 149.494H150.449V146.273H151.455V155H150.483V153.994H150.364C150.29 154.114 150.185 154.264 150.048 154.446C149.912 154.625 149.717 154.786 149.464 154.928C149.212 155.067 148.875 155.136 148.455 155.136ZM148.591 154.233C148.994 154.233 149.335 154.128 149.614 153.918C149.892 153.705 150.104 153.411 150.249 153.036C150.393 152.658 150.466 152.222 150.466 151.727C150.466 151.239 150.395 150.811 150.253 150.445C150.111 150.075 149.901 149.788 149.622 149.584C149.344 149.376 149 149.273 148.591 149.273C148.165 149.273 147.81 149.382 147.526 149.601C147.244 149.817 147.033 150.111 146.891 150.483C146.751 150.852 146.682 151.267 146.682 151.727C146.682 152.193 146.753 152.616 146.895 152.997C147.04 153.375 147.253 153.676 147.534 153.901C147.818 154.122 148.17 154.233 148.591 154.233ZM153.436 155V148.455H154.442V155H153.436ZM153.947 147.364C153.751 147.364 153.582 147.297 153.44 147.163C153.301 147.03 153.232 146.869 153.232 146.682C153.232 146.494 153.301 146.334 153.44 146.2C153.582 146.067 153.751 146 153.947 146C154.143 146 154.311 146.067 154.45 146.2C154.592 146.334 154.663 146.494 154.663 146.682C154.663 146.869 154.592 147.03 154.45 147.163C154.311 147.297 154.143 147.364 153.947 147.364ZM161.636 148.455L159.216 155H158.193L155.772 148.455H156.863L158.67 153.67H158.738L160.545 148.455H161.636ZM146.342 179.92L145.439 180.176C145.382 180.026 145.298 179.879 145.187 179.737C145.079 179.592 144.931 179.473 144.744 179.379C144.556 179.286 144.316 179.239 144.024 179.239C143.623 179.239 143.289 179.331 143.022 179.516C142.758 179.697 142.626 179.929 142.626 180.21C142.626 180.46 142.717 180.658 142.899 180.803C143.081 180.947 143.365 181.068 143.751 181.165L144.723 181.403C145.308 181.545 145.744 181.763 146.031 182.055C146.318 182.345 146.461 182.719 146.461 183.176C146.461 183.551 146.353 183.886 146.137 184.182C145.924 184.477 145.626 184.71 145.243 184.881C144.859 185.051 144.413 185.136 143.904 185.136C143.237 185.136 142.684 184.991 142.247 184.702C141.809 184.412 141.532 183.989 141.416 183.432L142.37 183.193C142.461 183.545 142.633 183.81 142.886 183.986C143.142 184.162 143.475 184.25 143.887 184.25C144.356 184.25 144.728 184.151 145.004 183.952C145.282 183.75 145.422 183.509 145.422 183.227C145.422 183 145.342 182.81 145.183 182.656C145.024 182.5 144.779 182.384 144.45 182.307L143.359 182.051C142.76 181.909 142.319 181.689 142.038 181.391C141.76 181.089 141.62 180.713 141.62 180.261C141.62 179.892 141.724 179.565 141.931 179.281C142.142 178.997 142.427 178.774 142.788 178.612C143.152 178.45 143.564 178.369 144.024 178.369C144.672 178.369 145.18 178.511 145.549 178.795C145.922 179.08 146.186 179.455 146.342 179.92ZM150.719 185.136C150.089 185.136 149.545 184.997 149.087 184.719C148.633 184.438 148.282 184.045 148.035 183.543C147.79 183.037 147.668 182.449 147.668 181.778C147.668 181.108 147.79 180.517 148.035 180.006C148.282 179.491 148.626 179.091 149.066 178.804C149.509 178.514 150.026 178.369 150.617 178.369C150.958 178.369 151.295 178.426 151.627 178.54C151.96 178.653 152.262 178.838 152.535 179.094C152.808 179.347 153.025 179.682 153.187 180.099C153.349 180.517 153.43 181.031 153.43 181.642V182.068H148.384V181.199H152.407C152.407 180.83 152.333 180.5 152.185 180.21C152.04 179.92 151.833 179.692 151.563 179.524C151.296 179.357 150.981 179.273 150.617 179.273C150.217 179.273 149.87 179.372 149.577 179.571C149.288 179.767 149.065 180.023 148.908 180.338C148.752 180.653 148.674 180.991 148.674 181.352V181.932C148.674 182.426 148.759 182.845 148.93 183.189C149.103 183.53 149.343 183.79 149.65 183.969C149.957 184.145 150.313 184.233 150.719 184.233C150.984 184.233 151.222 184.196 151.435 184.122C151.651 184.045 151.837 183.932 151.994 183.781C152.15 183.628 152.271 183.437 152.356 183.21L153.327 183.483C153.225 183.812 153.053 184.102 152.812 184.352C152.57 184.599 152.272 184.793 151.917 184.932C151.562 185.068 151.163 185.136 150.719 185.136ZM157.619 185.136C157.005 185.136 156.477 184.991 156.033 184.702C155.59 184.412 155.249 184.013 155.011 183.504C154.772 182.996 154.653 182.415 154.653 181.761C154.653 181.097 154.775 180.51 155.019 180.001C155.266 179.49 155.61 179.091 156.05 178.804C156.494 178.514 157.011 178.369 157.602 178.369C158.062 178.369 158.477 178.455 158.846 178.625C159.215 178.795 159.518 179.034 159.754 179.341C159.989 179.648 160.136 180.006 160.192 180.415H159.187C159.11 180.116 158.94 179.852 158.675 179.622C158.414 179.389 158.062 179.273 157.619 179.273C157.227 179.273 156.883 179.375 156.587 179.58C156.295 179.781 156.066 180.067 155.901 180.436C155.739 180.803 155.658 181.233 155.658 181.727C155.658 182.233 155.738 182.673 155.897 183.048C156.059 183.423 156.286 183.714 156.579 183.922C156.874 184.129 157.221 184.233 157.619 184.233C157.88 184.233 158.117 184.188 158.33 184.097C158.543 184.006 158.724 183.875 158.871 183.705C159.019 183.534 159.124 183.33 159.187 183.091H160.192C160.136 183.477 159.995 183.825 159.771 184.135C159.549 184.442 159.255 184.686 158.888 184.868C158.525 185.047 158.102 185.136 157.619 185.136ZM164.509 178.455V179.307H161.117V178.455H164.509ZM162.106 176.886H163.112V183.125C163.112 183.409 163.153 183.622 163.235 183.764C163.32 183.903 163.428 183.997 163.559 184.045C163.692 184.091 163.833 184.114 163.981 184.114C164.092 184.114 164.183 184.108 164.254 184.097C164.325 184.082 164.381 184.071 164.424 184.062L164.629 184.966C164.56 184.991 164.465 185.017 164.343 185.043C164.221 185.071 164.066 185.085 163.879 185.085C163.594 185.085 163.316 185.024 163.043 184.902C162.773 184.78 162.549 184.594 162.37 184.344C162.194 184.094 162.106 183.778 162.106 183.398V176.886ZM166.022 185V178.455H167.028V185H166.022ZM166.533 177.364C166.337 177.364 166.168 177.297 166.026 177.163C165.887 177.03 165.817 176.869 165.817 176.682C165.817 176.494 165.887 176.334 166.026 176.2C166.168 176.067 166.337 176 166.533 176C166.729 176 166.897 176.067 167.036 176.2C167.178 176.334 167.249 176.494 167.249 176.682C167.249 176.869 167.178 177.03 167.036 177.163C166.897 177.297 166.729 177.364 166.533 177.364ZM171.529 185.136C170.938 185.136 170.419 184.996 169.973 184.714C169.53 184.433 169.184 184.04 168.934 183.534C168.686 183.028 168.563 182.437 168.563 181.761C168.563 181.08 168.686 180.484 168.934 179.976C169.184 179.467 169.53 179.072 169.973 178.791C170.419 178.51 170.938 178.369 171.529 178.369C172.12 178.369 172.637 178.51 173.08 178.791C173.526 179.072 173.873 179.467 174.12 179.976C174.37 180.484 174.495 181.08 174.495 181.761C174.495 182.437 174.37 183.028 174.12 183.534C173.873 184.04 173.526 184.433 173.08 184.714C172.637 184.996 172.12 185.136 171.529 185.136ZM171.529 184.233C171.978 184.233 172.347 184.118 172.637 183.888C172.926 183.658 173.141 183.355 173.28 182.98C173.419 182.605 173.489 182.199 173.489 181.761C173.489 181.324 173.419 180.916 173.28 180.538C173.141 180.161 172.926 179.855 172.637 179.622C172.347 179.389 171.978 179.273 171.529 179.273C171.08 179.273 170.711 179.389 170.421 179.622C170.131 179.855 169.917 180.161 169.777 180.538C169.638 180.916 169.569 181.324 169.569 181.761C169.569 182.199 169.638 182.605 169.777 182.98C169.917 183.355 170.131 183.658 170.421 183.888C170.711 184.118 171.08 184.233 171.529 184.233ZM177.036 181.062V185H176.03V178.455H177.001V179.477H177.087C177.24 179.145 177.473 178.878 177.786 178.676C178.098 178.472 178.501 178.369 178.996 178.369C179.439 178.369 179.827 178.46 180.159 178.642C180.491 178.821 180.75 179.094 180.935 179.46C181.119 179.824 181.212 180.284 181.212 180.841V185H180.206V180.909C180.206 180.395 180.072 179.994 179.805 179.707C179.538 179.418 179.172 179.273 178.706 179.273C178.385 179.273 178.098 179.342 177.845 179.482C177.595 179.621 177.398 179.824 177.253 180.091C177.108 180.358 177.036 180.682 177.036 181.062ZM153.994 404.92L153.091 405.176C153.034 405.026 152.95 404.879 152.839 404.737C152.732 404.592 152.584 404.473 152.396 404.379C152.209 404.286 151.969 404.239 151.676 404.239C151.276 404.239 150.942 404.331 150.675 404.516C150.411 404.697 150.278 404.929 150.278 405.21C150.278 405.46 150.369 405.658 150.551 405.803C150.733 405.947 151.017 406.068 151.403 406.165L152.375 406.403C152.96 406.545 153.396 406.763 153.683 407.055C153.97 407.345 154.114 407.719 154.114 408.176C154.114 408.551 154.006 408.886 153.79 409.182C153.577 409.477 153.278 409.71 152.895 409.881C152.511 410.051 152.065 410.136 151.557 410.136C150.889 410.136 150.337 409.991 149.899 409.702C149.462 409.412 149.185 408.989 149.068 408.432L150.023 408.193C150.114 408.545 150.286 408.81 150.538 408.986C150.794 409.162 151.128 409.25 151.54 409.25C152.009 409.25 152.381 409.151 152.656 408.952C152.935 408.75 153.074 408.509 153.074 408.227C153.074 408 152.994 407.81 152.835 407.656C152.676 407.5 152.432 407.384 152.102 407.307L151.011 407.051C150.412 406.909 149.972 406.689 149.69 406.391C149.412 406.089 149.273 405.713 149.273 405.261C149.273 404.892 149.376 404.565 149.584 404.281C149.794 403.997 150.08 403.774 150.44 403.612C150.804 403.45 151.216 403.369 151.676 403.369C152.324 403.369 152.832 403.511 153.202 403.795C153.574 404.08 153.838 404.455 153.994 404.92ZM158.372 410.136C157.741 410.136 157.197 409.997 156.74 409.719C156.285 409.438 155.934 409.045 155.687 408.543C155.443 408.037 155.321 407.449 155.321 406.778C155.321 406.108 155.443 405.517 155.687 405.006C155.934 404.491 156.278 404.091 156.718 403.804C157.162 403.514 157.679 403.369 158.27 403.369C158.61 403.369 158.947 403.426 159.279 403.54C159.612 403.653 159.914 403.838 160.187 404.094C160.46 404.347 160.677 404.682 160.839 405.099C161.001 405.517 161.082 406.031 161.082 406.642V407.068H156.037V406.199H160.059C160.059 405.83 159.985 405.5 159.838 405.21C159.693 404.92 159.485 404.692 159.216 404.524C158.949 404.357 158.633 404.273 158.27 404.273C157.869 404.273 157.522 404.372 157.23 404.571C156.94 404.767 156.717 405.023 156.561 405.338C156.404 405.653 156.326 405.991 156.326 406.352V406.932C156.326 407.426 156.412 407.845 156.582 408.189C156.755 408.53 156.995 408.79 157.302 408.969C157.609 409.145 157.966 409.233 158.372 409.233C158.636 409.233 158.875 409.196 159.088 409.122C159.304 409.045 159.49 408.932 159.646 408.781C159.802 408.628 159.923 408.437 160.008 408.21L160.98 408.483C160.877 408.812 160.706 409.102 160.464 409.352C160.223 409.599 159.924 409.793 159.569 409.932C159.214 410.068 158.815 410.136 158.372 410.136ZM165.271 410.136C164.657 410.136 164.129 409.991 163.686 409.702C163.243 409.412 162.902 409.013 162.663 408.504C162.424 407.996 162.305 407.415 162.305 406.761C162.305 406.097 162.427 405.51 162.672 405.001C162.919 404.49 163.262 404.091 163.703 403.804C164.146 403.514 164.663 403.369 165.254 403.369C165.714 403.369 166.129 403.455 166.498 403.625C166.868 403.795 167.17 404.034 167.406 404.341C167.642 404.648 167.788 405.006 167.845 405.415H166.839C166.762 405.116 166.592 404.852 166.328 404.622C166.066 404.389 165.714 404.273 165.271 404.273C164.879 404.273 164.535 404.375 164.24 404.58C163.947 404.781 163.718 405.067 163.554 405.436C163.392 405.803 163.311 406.233 163.311 406.727C163.311 407.233 163.39 407.673 163.549 408.048C163.711 408.423 163.939 408.714 164.231 408.922C164.527 409.129 164.873 409.233 165.271 409.233C165.532 409.233 165.77 409.188 165.983 409.097C166.196 409.006 166.376 408.875 166.524 408.705C166.672 408.534 166.777 408.33 166.839 408.091H167.845C167.788 408.477 167.647 408.825 167.423 409.135C167.201 409.442 166.907 409.686 166.541 409.868C166.177 410.047 165.754 410.136 165.271 410.136ZM172.162 403.455V404.307H168.77V403.455H172.162ZM169.758 401.886H170.764V408.125C170.764 408.409 170.805 408.622 170.887 408.764C170.973 408.903 171.081 408.997 171.211 409.045C171.345 409.091 171.485 409.114 171.633 409.114C171.744 409.114 171.835 409.108 171.906 409.097C171.977 409.082 172.034 409.071 172.076 409.062L172.281 409.966C172.213 409.991 172.118 410.017 171.995 410.043C171.873 410.071 171.718 410.085 171.531 410.085C171.247 410.085 170.968 410.024 170.696 409.902C170.426 409.78 170.201 409.594 170.022 409.344C169.846 409.094 169.758 408.778 169.758 408.398V401.886ZM173.674 410V403.455H174.68V410H173.674ZM174.186 402.364C173.99 402.364 173.821 402.297 173.679 402.163C173.539 402.03 173.47 401.869 173.47 401.682C173.47 401.494 173.539 401.334 173.679 401.2C173.821 401.067 173.99 401 174.186 401C174.382 401 174.549 401.067 174.689 401.2C174.831 401.334 174.902 401.494 174.902 401.682C174.902 401.869 174.831 402.03 174.689 402.163C174.549 402.297 174.382 402.364 174.186 402.364ZM179.181 410.136C178.59 410.136 178.072 409.996 177.626 409.714C177.183 409.433 176.836 409.04 176.586 408.534C176.339 408.028 176.215 407.437 176.215 406.761C176.215 406.08 176.339 405.484 176.586 404.976C176.836 404.467 177.183 404.072 177.626 403.791C178.072 403.51 178.59 403.369 179.181 403.369C179.772 403.369 180.289 403.51 180.732 403.791C181.178 404.072 181.525 404.467 181.772 404.976C182.022 405.484 182.147 406.08 182.147 406.761C182.147 407.437 182.022 408.028 181.772 408.534C181.525 409.04 181.178 409.433 180.732 409.714C180.289 409.996 179.772 410.136 179.181 410.136ZM179.181 409.233C179.63 409.233 179.999 409.118 180.289 408.888C180.579 408.658 180.793 408.355 180.933 407.98C181.072 407.605 181.141 407.199 181.141 406.761C181.141 406.324 181.072 405.916 180.933 405.538C180.793 405.161 180.579 404.855 180.289 404.622C179.999 404.389 179.63 404.273 179.181 404.273C178.732 404.273 178.363 404.389 178.073 404.622C177.783 404.855 177.569 405.161 177.43 405.538C177.29 405.916 177.221 406.324 177.221 406.761C177.221 407.199 177.29 407.605 177.43 407.98C177.569 408.355 177.783 408.658 178.073 408.888C178.363 409.118 178.732 409.233 179.181 409.233ZM184.688 406.062V410H183.682V403.455H184.654V404.477H184.739C184.892 404.145 185.125 403.878 185.438 403.676C185.75 403.472 186.154 403.369 186.648 403.369C187.091 403.369 187.479 403.46 187.811 403.642C188.144 403.821 188.402 404.094 188.587 404.46C188.772 404.824 188.864 405.284 188.864 405.841V410H187.858V405.909C187.858 405.395 187.725 404.994 187.458 404.707C187.191 404.418 186.824 404.273 186.358 404.273C186.037 404.273 185.75 404.342 185.498 404.482C185.248 404.621 185.05 404.824 184.905 405.091C184.76 405.358 184.688 405.682 184.688 406.062ZM129.244 425V416.273H130.25V419.494H130.335C130.409 419.381 130.511 419.236 130.642 419.06C130.776 418.881 130.966 418.722 131.213 418.582C131.463 418.44 131.801 418.369 132.227 418.369C132.778 418.369 133.264 418.507 133.685 418.783C134.105 419.058 134.433 419.449 134.669 419.955C134.905 420.46 135.023 421.057 135.023 421.744C135.023 422.438 134.905 423.038 134.669 423.547C134.433 424.053 134.107 424.445 133.689 424.723C133.271 424.999 132.79 425.136 132.244 425.136C131.824 425.136 131.487 425.067 131.234 424.928C130.982 424.786 130.787 424.625 130.651 424.446C130.514 424.264 130.409 424.114 130.335 423.994H130.216V425H129.244ZM130.233 421.727C130.233 422.222 130.305 422.658 130.45 423.036C130.595 423.411 130.807 423.705 131.085 423.918C131.364 424.128 131.705 424.233 132.108 424.233C132.528 424.233 132.879 424.122 133.161 423.901C133.445 423.676 133.658 423.375 133.8 422.997C133.945 422.616 134.017 422.193 134.017 421.727C134.017 421.267 133.946 420.852 133.804 420.483C133.665 420.111 133.453 419.817 133.169 419.601C132.888 419.382 132.534 419.273 132.108 419.273C131.699 419.273 131.355 419.376 131.077 419.584C130.798 419.788 130.588 420.075 130.446 420.445C130.304 420.811 130.233 421.239 130.233 421.727ZM139.22 425.136C138.629 425.136 138.111 424.996 137.665 424.714C137.222 424.433 136.875 424.04 136.625 423.534C136.378 423.028 136.254 422.437 136.254 421.761C136.254 421.08 136.378 420.484 136.625 419.976C136.875 419.467 137.222 419.072 137.665 418.791C138.111 418.51 138.629 418.369 139.22 418.369C139.811 418.369 140.328 418.51 140.771 418.791C141.217 419.072 141.564 419.467 141.811 419.976C142.061 420.484 142.186 421.08 142.186 421.761C142.186 422.437 142.061 423.028 141.811 423.534C141.564 424.04 141.217 424.433 140.771 424.714C140.328 424.996 139.811 425.136 139.22 425.136ZM139.22 424.233C139.669 424.233 140.038 424.118 140.328 423.888C140.618 423.658 140.832 423.355 140.972 422.98C141.111 422.605 141.18 422.199 141.18 421.761C141.18 421.324 141.111 420.916 140.972 420.538C140.832 420.161 140.618 419.855 140.328 419.622C140.038 419.389 139.669 419.273 139.22 419.273C138.771 419.273 138.402 419.389 138.112 419.622C137.822 419.855 137.608 420.161 137.469 420.538C137.33 420.916 137.26 421.324 137.26 421.761C137.26 422.199 137.33 422.605 137.469 422.98C137.608 423.355 137.822 423.658 138.112 423.888C138.402 424.118 138.771 424.233 139.22 424.233ZM146.193 425.136C145.647 425.136 145.166 424.999 144.748 424.723C144.331 424.445 144.004 424.053 143.768 423.547C143.532 423.038 143.414 422.438 143.414 421.744C143.414 421.057 143.532 420.46 143.768 419.955C144.004 419.449 144.332 419.058 144.752 418.783C145.173 418.507 145.659 418.369 146.21 418.369C146.636 418.369 146.973 418.44 147.22 418.582C147.47 418.722 147.66 418.881 147.791 419.06C147.924 419.236 148.028 419.381 148.102 419.494H148.187V416.273H149.193V425H148.221V423.994H148.102C148.028 424.114 147.923 424.264 147.787 424.446C147.65 424.625 147.456 424.786 147.203 424.928C146.95 425.067 146.613 425.136 146.193 425.136ZM146.329 424.233C146.733 424.233 147.074 424.128 147.352 423.918C147.63 423.705 147.842 423.411 147.987 423.036C148.132 422.658 148.204 422.222 148.204 421.727C148.204 421.239 148.133 420.811 147.991 420.445C147.849 420.075 147.639 419.788 147.36 419.584C147.082 419.376 146.738 419.273 146.329 419.273C145.903 419.273 145.548 419.382 145.264 419.601C144.983 419.817 144.771 420.111 144.629 420.483C144.49 420.852 144.42 421.267 144.42 421.727C144.42 422.193 144.491 422.616 144.633 422.997C144.778 423.375 144.991 423.676 145.272 423.901C145.556 424.122 145.909 424.233 146.329 424.233ZM151.822 427.455C151.652 427.455 151.5 427.44 151.366 427.412C151.233 427.386 151.14 427.361 151.089 427.335L151.345 426.449C151.589 426.511 151.805 426.534 151.993 426.517C152.18 426.5 152.346 426.416 152.491 426.266C152.639 426.118 152.774 425.878 152.896 425.545L153.083 425.034L150.663 418.455H151.754L153.561 423.67H153.629L155.436 418.455H156.527L153.748 425.955C153.623 426.293 153.468 426.572 153.284 426.794C153.099 427.018 152.885 427.185 152.64 427.293C152.399 427.401 152.126 427.455 151.822 427.455ZM125.836 436.062V440H124.831V431.273H125.836V434.477H125.922C126.075 434.139 126.305 433.871 126.612 433.672C126.922 433.47 127.333 433.369 127.848 433.369C128.294 433.369 128.684 433.459 129.02 433.638C129.355 433.814 129.615 434.085 129.799 434.452C129.987 434.815 130.081 435.278 130.081 435.841V440H129.075V435.909C129.075 435.389 128.94 434.987 128.67 434.703C128.403 434.416 128.032 434.273 127.558 434.273C127.228 434.273 126.933 434.342 126.672 434.482C126.413 434.621 126.208 434.824 126.058 435.091C125.91 435.358 125.836 435.682 125.836 436.062ZM134.767 433.455V434.307H131.375V433.455H134.767ZM132.364 431.886H133.369V438.125C133.369 438.409 133.411 438.622 133.493 438.764C133.578 438.903 133.686 438.997 133.817 439.045C133.95 439.091 134.091 439.114 134.239 439.114C134.349 439.114 134.44 439.108 134.511 439.097C134.582 439.082 134.639 439.071 134.682 439.062L134.886 439.966C134.818 439.991 134.723 440.017 134.601 440.043C134.479 440.071 134.324 440.085 134.136 440.085C133.852 440.085 133.574 440.024 133.301 439.902C133.031 439.78 132.807 439.594 132.628 439.344C132.452 439.094 132.364 438.778 132.364 438.398V431.886ZM136.28 440V433.455H137.251V434.477H137.337C137.473 434.128 137.693 433.857 137.997 433.663C138.301 433.467 138.666 433.369 139.092 433.369C139.524 433.369 139.884 433.467 140.17 433.663C140.46 433.857 140.686 434.128 140.848 434.477H140.916C141.084 434.139 141.335 433.871 141.67 433.672C142.006 433.47 142.408 433.369 142.876 433.369C143.462 433.369 143.94 433.553 144.312 433.919C144.685 434.283 144.871 434.849 144.871 435.619V440H143.865V435.619C143.865 435.136 143.733 434.791 143.469 434.584C143.205 434.376 142.893 434.273 142.536 434.273C142.075 434.273 141.719 434.412 141.466 434.69C141.213 434.966 141.087 435.315 141.087 435.739V440H140.064V435.517C140.064 435.145 139.943 434.845 139.702 434.618C139.46 434.388 139.149 434.273 138.768 434.273C138.507 434.273 138.263 434.342 138.036 434.482C137.811 434.621 137.629 434.814 137.49 435.061C137.354 435.305 137.286 435.588 137.286 435.909V440H136.28ZM147.715 431.273V440H146.71V431.273H147.715Z" fill="#3278FF"/>
<path d="M180.375 61.0625V65H179.37V56.2727H180.375V59.4773H180.461C180.614 59.1392 180.844 58.8707 181.151 58.6719C181.461 58.4702 181.873 58.3693 182.387 58.3693C182.833 58.3693 183.223 58.4588 183.559 58.6378C183.894 58.8139 184.154 59.0852 184.338 59.4517C184.526 59.8153 184.62 60.2784 184.62 60.8409V65H183.614V60.9091C183.614 60.3892 183.479 59.9872 183.209 59.7031C182.942 59.4162 182.571 59.2727 182.097 59.2727C181.767 59.2727 181.472 59.3423 181.211 59.4815C180.952 59.6207 180.748 59.8239 180.597 60.0909C180.449 60.358 180.375 60.6818 180.375 61.0625ZM189.306 58.4545V59.3068H185.914V58.4545H189.306ZM186.903 56.8864H187.908V63.125C187.908 63.4091 187.95 63.6222 188.032 63.7642C188.117 63.9034 188.225 63.9972 188.356 64.0455C188.489 64.0909 188.63 64.1136 188.778 64.1136C188.888 64.1136 188.979 64.108 189.05 64.0966C189.121 64.0824 189.178 64.071 189.221 64.0625L189.425 64.9659C189.357 64.9915 189.262 65.017 189.14 65.0426C189.018 65.071 188.863 65.0852 188.675 65.0852C188.391 65.0852 188.113 65.0241 187.84 64.902C187.57 64.7798 187.346 64.5938 187.167 64.3438C186.991 64.0938 186.903 63.7784 186.903 63.3977V56.8864ZM190.819 65V58.4545H191.79V59.4773H191.876C192.012 59.1278 192.232 58.8565 192.536 58.6634C192.84 58.4673 193.205 58.3693 193.631 58.3693C194.063 58.3693 194.423 58.4673 194.71 58.6634C194.999 58.8565 195.225 59.1278 195.387 59.4773H195.455C195.623 59.1392 195.874 58.8707 196.21 58.6719C196.545 58.4702 196.947 58.3693 197.415 58.3693C198.001 58.3693 198.479 58.5526 198.852 58.919C199.224 59.2827 199.41 59.8494 199.41 60.6193V65H198.404V60.6193C198.404 60.1364 198.272 59.7912 198.008 59.5838C197.744 59.3764 197.433 59.2727 197.075 59.2727C196.614 59.2727 196.258 59.4119 196.005 59.6903C195.752 59.9659 195.626 60.3153 195.626 60.7386V65H194.603V60.517C194.603 60.1449 194.482 59.8452 194.241 59.6179C193.999 59.3878 193.688 59.2727 193.308 59.2727C193.046 59.2727 192.802 59.3423 192.575 59.4815C192.35 59.6207 192.168 59.8139 192.029 60.0611C191.893 60.3054 191.825 60.5881 191.825 60.9091V65H190.819ZM202.254 56.2727V65H201.249V56.2727H202.254ZM181.853 140.136C181.239 140.136 180.711 139.991 180.268 139.702C179.825 139.412 179.484 139.013 179.245 138.504C179.006 137.996 178.887 137.415 178.887 136.761C178.887 136.097 179.009 135.51 179.254 135.001C179.501 134.49 179.844 134.091 180.285 133.804C180.728 133.514 181.245 133.369 181.836 133.369C182.296 133.369 182.711 133.455 183.08 133.625C183.45 133.795 183.752 134.034 183.988 134.341C184.224 134.648 184.37 135.006 184.427 135.415H183.421C183.344 135.116 183.174 134.852 182.91 134.622C182.648 134.389 182.296 134.273 181.853 134.273C181.461 134.273 181.117 134.375 180.822 134.58C180.529 134.781 180.3 135.067 180.136 135.436C179.974 135.803 179.893 136.233 179.893 136.727C179.893 137.233 179.972 137.673 180.131 138.048C180.293 138.423 180.521 138.714 180.813 138.922C181.109 139.129 181.455 139.233 181.853 139.233C182.114 139.233 182.352 139.188 182.565 139.097C182.778 139.006 182.958 138.875 183.106 138.705C183.254 138.534 183.359 138.33 183.421 138.091H184.427C184.37 138.477 184.229 138.825 184.005 139.135C183.783 139.442 183.489 139.686 183.123 139.868C182.759 140.047 182.336 140.136 181.853 140.136ZM186.903 131.273V140H185.897V131.273H186.903ZM190.671 140.153C190.256 140.153 189.88 140.075 189.542 139.919C189.203 139.76 188.935 139.531 188.736 139.233C188.537 138.932 188.438 138.568 188.438 138.142C188.438 137.767 188.512 137.463 188.659 137.23C188.807 136.994 189.005 136.81 189.252 136.676C189.499 136.543 189.772 136.443 190.07 136.378C190.371 136.31 190.674 136.256 190.978 136.216C191.375 136.165 191.698 136.126 191.945 136.101C192.195 136.072 192.377 136.026 192.49 135.96C192.607 135.895 192.665 135.781 192.665 135.619V135.585C192.665 135.165 192.55 134.838 192.32 134.605C192.093 134.372 191.748 134.256 191.284 134.256C190.804 134.256 190.428 134.361 190.155 134.571C189.882 134.781 189.691 135.006 189.58 135.244L188.625 134.903C188.796 134.506 189.023 134.196 189.307 133.974C189.594 133.75 189.907 133.594 190.245 133.506C190.586 133.415 190.921 133.369 191.25 133.369C191.461 133.369 191.702 133.395 191.975 133.446C192.25 133.494 192.516 133.595 192.772 133.749C193.03 133.902 193.245 134.134 193.415 134.443C193.586 134.753 193.671 135.168 193.671 135.688V140H192.665V139.114H192.614C192.546 139.256 192.432 139.408 192.273 139.57C192.114 139.732 191.902 139.869 191.638 139.983C191.374 140.097 191.051 140.153 190.671 140.153ZM190.824 139.25C191.222 139.25 191.557 139.172 191.83 139.016C192.105 138.859 192.313 138.658 192.452 138.411C192.594 138.163 192.665 137.903 192.665 137.631V136.71C192.623 136.761 192.529 136.808 192.384 136.851C192.242 136.891 192.077 136.926 191.89 136.957C191.705 136.986 191.525 137.011 191.348 137.034C191.175 137.054 191.034 137.071 190.926 137.085C190.665 137.119 190.421 137.175 190.194 137.251C189.969 137.325 189.787 137.437 189.648 137.588C189.512 137.736 189.444 137.937 189.444 138.193C189.444 138.543 189.573 138.807 189.831 138.986C190.093 139.162 190.424 139.25 190.824 139.25ZM200.143 134.92L199.239 135.176C199.183 135.026 199.099 134.879 198.988 134.737C198.88 134.592 198.732 134.473 198.545 134.379C198.357 134.286 198.117 134.239 197.825 134.239C197.424 134.239 197.09 134.331 196.823 134.516C196.559 134.697 196.427 134.929 196.427 135.21C196.427 135.46 196.518 135.658 196.7 135.803C196.881 135.947 197.165 136.068 197.552 136.165L198.523 136.403C199.109 136.545 199.545 136.763 199.832 137.055C200.119 137.345 200.262 137.719 200.262 138.176C200.262 138.551 200.154 138.886 199.938 139.182C199.725 139.477 199.427 139.71 199.043 139.881C198.66 140.051 198.214 140.136 197.705 140.136C197.038 140.136 196.485 139.991 196.048 139.702C195.61 139.412 195.333 138.989 195.217 138.432L196.171 138.193C196.262 138.545 196.434 138.81 196.687 138.986C196.942 139.162 197.276 139.25 197.688 139.25C198.157 139.25 198.529 139.151 198.805 138.952C199.083 138.75 199.222 138.509 199.222 138.227C199.222 138 199.143 137.81 198.984 137.656C198.825 137.5 198.58 137.384 198.251 137.307L197.16 137.051C196.56 136.909 196.12 136.689 195.839 136.391C195.56 136.089 195.421 135.713 195.421 135.261C195.421 134.892 195.525 134.565 195.732 134.281C195.942 133.997 196.228 133.774 196.589 133.612C196.952 133.45 197.364 133.369 197.825 133.369C198.472 133.369 198.981 133.511 199.35 133.795C199.722 134.08 199.987 134.455 200.143 134.92ZM206.412 134.92L205.509 135.176C205.452 135.026 205.368 134.879 205.257 134.737C205.15 134.592 205.002 134.473 204.814 134.379C204.627 134.286 204.387 134.239 204.094 134.239C203.694 134.239 203.36 134.331 203.093 134.516C202.828 134.697 202.696 134.929 202.696 135.21C202.696 135.46 202.787 135.658 202.969 135.803C203.151 135.947 203.435 136.068 203.821 136.165L204.793 136.403C205.378 136.545 205.814 136.763 206.101 137.055C206.388 137.345 206.532 137.719 206.532 138.176C206.532 138.551 206.424 138.886 206.208 139.182C205.995 139.477 205.696 139.71 205.313 139.881C204.929 140.051 204.483 140.136 203.975 140.136C203.307 140.136 202.755 139.991 202.317 139.702C201.88 139.412 201.603 138.989 201.486 138.432L202.441 138.193C202.532 138.545 202.703 138.81 202.956 138.986C203.212 139.162 203.546 139.25 203.958 139.25C204.426 139.25 204.799 139.151 205.074 138.952C205.353 138.75 205.492 138.509 205.492 138.227C205.492 138 205.412 137.81 205.253 137.656C205.094 137.5 204.85 137.384 204.52 137.307L203.429 137.051C202.83 136.909 202.39 136.689 202.108 136.391C201.83 136.089 201.691 135.713 201.691 135.261C201.691 134.892 201.794 134.565 202.002 134.281C202.212 133.997 202.498 133.774 202.858 133.612C203.222 133.45 203.634 133.369 204.094 133.369C204.742 133.369 205.25 133.511 205.62 133.795C205.992 134.08 206.256 134.455 206.412 134.92Z" fill="#8EC7FB"/>
<path d="M216.842 131.273V132.04C216.842 132.273 216.799 132.521 216.714 132.786C216.632 133.047 216.51 133.301 216.348 133.548C216.189 133.793 215.995 134.006 215.768 134.188L215.223 133.744C215.402 133.489 215.556 133.223 215.687 132.947C215.821 132.669 215.887 132.372 215.887 132.057V131.273H216.842ZM219.024 131.273V132.04C219.024 132.273 218.981 132.521 218.896 132.786C218.814 133.047 218.691 133.301 218.529 133.548C218.37 133.793 218.177 134.006 217.95 134.188L217.404 133.744C217.583 133.489 217.738 133.223 217.869 132.947C218.002 132.669 218.069 132.372 218.069 132.057V131.273H219.024ZM223.548 133.455V134.307H220.156V133.455H223.548ZM221.145 131.886H222.151V138.125C222.151 138.409 222.192 138.622 222.274 138.764C222.359 138.903 222.467 138.997 222.598 139.045C222.732 139.091 222.872 139.114 223.02 139.114C223.131 139.114 223.222 139.108 223.293 139.097C223.364 139.082 223.42 139.071 223.463 139.062L223.668 139.966C223.599 139.991 223.504 140.017 223.382 140.043C223.26 140.071 223.105 140.085 222.918 140.085C222.634 140.085 222.355 140.024 222.082 139.902C221.813 139.78 221.588 139.594 221.409 139.344C221.233 139.094 221.145 138.778 221.145 138.398V131.886ZM225.061 140V133.455H226.067V140H225.061ZM225.572 132.364C225.376 132.364 225.207 132.297 225.065 132.163C224.926 132.03 224.857 131.869 224.857 131.682C224.857 131.494 224.926 131.334 225.065 131.2C225.207 131.067 225.376 131 225.572 131C225.768 131 225.936 131.067 226.075 131.2C226.217 131.334 226.288 131.494 226.288 131.682C226.288 131.869 226.217 132.03 226.075 132.163C225.936 132.297 225.768 132.364 225.572 132.364ZM230.755 133.455V134.307H227.363V133.455H230.755ZM228.352 131.886H229.358V138.125C229.358 138.409 229.399 138.622 229.481 138.764C229.566 138.903 229.674 138.997 229.805 139.045C229.939 139.091 230.079 139.114 230.227 139.114C230.338 139.114 230.429 139.108 230.5 139.097C230.571 139.082 230.627 139.071 230.67 139.062L230.875 139.966C230.806 139.991 230.711 140.017 230.589 140.043C230.467 140.071 230.312 140.085 230.125 140.085C229.841 140.085 229.562 140.024 229.289 139.902C229.02 139.78 228.795 139.594 228.616 139.344C228.44 139.094 228.352 138.778 228.352 138.398V131.886ZM233.414 131.273V140H232.409V131.273H233.414ZM238.001 140.136C237.37 140.136 236.826 139.997 236.369 139.719C235.914 139.438 235.563 139.045 235.316 138.543C235.072 138.037 234.95 137.449 234.95 136.778C234.95 136.108 235.072 135.517 235.316 135.006C235.563 134.491 235.907 134.091 236.347 133.804C236.79 133.514 237.308 133.369 237.898 133.369C238.239 133.369 238.576 133.426 238.908 133.54C239.241 133.653 239.543 133.838 239.816 134.094C240.089 134.347 240.306 134.682 240.468 135.099C240.63 135.517 240.711 136.031 240.711 136.642V137.068H235.665V136.199H239.688C239.688 135.83 239.614 135.5 239.467 135.21C239.322 134.92 239.114 134.692 238.844 134.524C238.577 134.357 238.262 134.273 237.898 134.273C237.498 134.273 237.151 134.372 236.859 134.571C236.569 134.767 236.346 135.023 236.19 135.338C236.033 135.653 235.955 135.991 235.955 136.352V136.932C235.955 137.426 236.04 137.845 236.211 138.189C236.384 138.53 236.624 138.79 236.931 138.969C237.238 139.145 237.594 139.233 238.001 139.233C238.265 139.233 238.504 139.196 238.717 139.122C238.933 139.045 239.119 138.932 239.275 138.781C239.431 138.628 239.552 138.437 239.637 138.21L240.609 138.483C240.506 138.812 240.335 139.102 240.093 139.352C239.852 139.599 239.553 139.793 239.198 139.932C238.843 140.068 238.444 140.136 238.001 140.136ZM243.127 131.273V132.04C243.127 132.273 243.085 132.521 242.999 132.786C242.917 133.047 242.795 133.301 242.633 133.548C242.474 133.793 242.281 134.006 242.053 134.188L241.508 133.744C241.687 133.489 241.842 133.223 241.972 132.947C242.106 132.669 242.173 132.372 242.173 132.057V131.273H243.127ZM245.309 131.273V132.04C245.309 132.273 245.266 132.521 245.181 132.786C245.099 133.047 244.977 133.301 244.815 133.548C244.656 133.793 244.462 134.006 244.235 134.188L243.69 133.744C243.869 133.489 244.023 133.223 244.154 132.947C244.288 132.669 244.354 132.372 244.354 132.057V131.273H245.309Z" fill="#D78347"/>
<rect x="184" y="194" width="247" height="6" fill="#212426"/>
<rect x="184" y="266" width="247" height="6" fill="#212426"/>
<rect x="186" y="343" width="247" height="6" fill="#212426"/>
<rect x="186" y="212" width="247" height="6" fill="#212426"/>
<rect x="186" y="284" width="247" height="6" fill="#212426"/>
<rect x="188" y="361" width="247" height="6" fill="#212426"/>
<rect x="186" y="230" width="247" height="6" fill="#212426"/>
<rect x="186" y="302" width="247" height="6" fill="#212426"/>
<rect x="188" y="379" width="247" height="6" fill="#212426"/>
</svg>
