<svg width="29" height="11" viewBox="0 0 29 11" fill="none" xmlns="http://www.w3.org/2000/svg">
<path d="M0.792 2.536C0.704 2.608 0.612 2.676 0.516 2.74C0.42 2.804 0.308 2.836 0.18 2.836C0.06 2.836 0 2.728 0 2.512C0 2.072 0.204 1.712 0.612 1.432C1.004 1.144 1.476 0.999999 2.028 0.999999C2.58 0.999999 2.984 1.196 3.24 1.588C3.448 1.9 3.552 2.324 3.552 2.86C3.552 3.092 3.508 3.392 3.42 3.76C2.964 5.664 2.732 6.984 2.724 7.72C2.732 8.072 2.88 8.312 3.168 8.44C3.28 8.488 3.412 8.512 3.564 8.512C4.276 8.512 4.948 8.092 5.58 7.252C5.26 6.132 5.1 4.86 5.1 3.436C5.1 2.908 5.224 2.48 5.472 2.152C5.728 1.816 6.14 1.648 6.708 1.648C7.132 1.648 7.452 1.768 7.668 2.008C7.892 2.248 8.004 2.564 8.004 2.956C8.004 3.764 7.792 4.76 7.368 5.944C7.224 6.344 7.056 6.74 6.864 7.132C7.208 8.06 7.664 8.524 8.232 8.524C8.872 8.524 9.432 8.092 9.912 7.228C10.264 6.596 10.552 5.736 10.776 4.648C10.192 4.568 9.728 4.32 9.384 3.904C9.048 3.488 8.88 3.044 8.88 2.572C8.88 2.1 9.028 1.708 9.324 1.396C9.62 1.084 10.024 0.927999 10.536 0.927999C11.048 0.92 11.432 1.1 11.688 1.468C11.944 1.828 12.072 2.32 12.072 2.944V3.184C12.072 3.272 12.068 3.368 12.06 3.472C12.196 3.408 12.312 3.344 12.408 3.28C12.504 3.208 12.6 3.172 12.696 3.172C12.856 3.172 12.936 3.24 12.936 3.376C12.936 3.64 12.848 3.872 12.672 4.072C12.504 4.272 12.276 4.424 11.988 4.528C11.884 5.464 11.744 6.2 11.568 6.736C11.24 7.768 10.808 8.552 10.272 9.088C9.632 9.712 8.844 10.028 7.908 10.036C7.132 10.036 6.5 9.52 6.012 8.488C5.196 9.52 4.268 10.036 3.228 10.036C2.516 10.036 1.948 9.86 1.524 9.508C1.108 9.148 0.9 8.584 0.9 7.816C0.9 7.632 1 7.148 1.2 6.364C1.408 5.572 1.572 4.924 1.692 4.42C1.812 3.908 1.872 3.504 1.872 3.208C1.872 2.56 1.708 2.236 1.38 2.236C1.268 2.236 1.164 2.268 1.068 2.332C0.98 2.396 0.888 2.464 0.792 2.536ZM6.612 2.656C6.404 2.656 6.3 2.98 6.3 3.628C6.3 4.276 6.356 4.928 6.468 5.584C6.772 4.792 6.924 4.024 6.924 3.28C6.924 3.12 6.896 2.976 6.84 2.848C6.792 2.72 6.716 2.656 6.612 2.656ZM10.668 1.972C10.5 1.972 10.416 2.104 10.416 2.368C10.416 2.848 10.604 3.196 10.98 3.412C11.012 3.108 11.028 2.904 11.028 2.8C11.028 2.576 11 2.396 10.944 2.26C10.88 2.068 10.788 1.972 10.668 1.972ZM16.8735 4.648C17.5695 4.648 17.9175 4.824 17.9175 5.176C17.9175 5.584 17.5175 5.788 16.7175 5.788C16.5415 5.788 16.3495 5.756 16.1415 5.692C15.9095 5.852 15.7295 6.052 15.6015 6.292C15.4815 6.532 15.4215 6.88 15.4215 7.336C15.4215 7.784 15.5975 8.116 15.9495 8.332C16.3095 8.548 16.7295 8.656 17.2095 8.656C17.6975 8.656 18.0895 8.58 18.3855 8.428C18.6895 8.268 18.9535 8.096 19.1775 7.912C19.4015 7.728 19.5815 7.56 19.7175 7.408C19.8615 7.248 19.9655 7.168 20.0295 7.168C20.0935 7.168 20.1455 7.212 20.1855 7.3C20.2255 7.38 20.2455 7.488 20.2455 7.624C20.2455 8.264 19.8895 8.828 19.1775 9.316C18.4735 9.796 17.6295 10.036 16.6455 10.036C15.1095 10.036 14.1135 9.592 13.6575 8.704C13.4975 8.392 13.4175 8.016 13.4175 7.576C13.4175 6.432 13.9895 5.632 15.1335 5.176C14.5495 4.768 14.2575 4.152 14.2575 3.328C14.2575 2.936 14.3655 2.572 14.5815 2.236C14.3815 2.012 14.2175 1.776 14.0895 1.528C13.9695 1.28 13.9095 1.092 13.9095 0.964C13.9095 0.74 13.9895 0.628 14.1495 0.628C14.2615 0.628 14.3975 0.716 14.5575 0.891999C14.7255 1.06 14.8615 1.196 14.9655 1.3C15.0695 1.404 15.1775 1.488 15.2895 1.552C15.9695 1.136 16.7695 0.927999 17.6895 0.927999C18.6095 0.927999 19.2215 1.184 19.5255 1.696C19.6375 1.888 19.6935 2.124 19.6935 2.404C19.6935 2.828 19.5095 3.184 19.1415 3.472C18.7735 3.76 18.2895 3.904 17.6895 3.904C17.0895 3.904 16.5295 3.712 16.0095 3.328C16.0015 3.36 15.9975 3.392 15.9975 3.424V3.688C15.9975 3.832 16.0415 4.004 16.1295 4.204C16.2255 4.396 16.3415 4.556 16.4775 4.684C16.5975 4.66 16.7295 4.648 16.8735 4.648ZM18.3615 2.584C18.3615 2.272 18.1055 2.116 17.5935 2.116C17.0815 2.116 16.6695 2.272 16.3575 2.584C16.7895 2.848 17.2295 2.98 17.6775 2.98C18.1335 2.98 18.3615 2.848 18.3615 2.584ZM28.074 1.444C28.074 1.908 27.166 3.244 25.35 5.452C25.43 5.876 25.506 6.284 25.578 6.676C25.65 7.06 25.73 7.4 25.818 7.696C25.906 7.984 26.006 8.216 26.118 8.392C26.238 8.568 26.37 8.656 26.514 8.656C26.658 8.656 26.818 8.58 26.994 8.428C27.17 8.276 27.346 8.112 27.522 7.936C27.698 7.752 27.858 7.584 28.002 7.432C28.154 7.28 28.258 7.204 28.314 7.204C28.426 7.204 28.482 7.34 28.482 7.612C28.482 8.164 28.198 8.708 27.63 9.244C27.062 9.772 26.462 10.036 25.83 10.036C25.166 10.036 24.642 9.46 24.258 8.308C24.146 7.964 24.038 7.6 23.934 7.216C23.702 7.52 23.454 7.844 23.19 8.188C22.926 8.524 22.642 8.836 22.338 9.124C21.65 9.788 21.018 10.12 20.442 10.12C20.266 10.12 20.13 10.092 20.034 10.036C19.938 9.98 19.89 9.928 19.89 9.88C19.89 9.824 19.922 9.772 19.986 9.724C20.05 9.676 20.218 9.528 20.49 9.28C21.674 8.192 22.71 7 23.598 5.704C23.446 4.936 23.302 4.276 23.166 3.724C22.934 3.788 22.69 3.82 22.434 3.82C21.85 3.82 21.386 3.72 21.042 3.52C20.602 3.272 20.382 2.916 20.382 2.452C20.382 1.988 20.53 1.616 20.826 1.336C21.122 1.056 21.49 0.916 21.93 0.916C22.378 0.916 22.754 0.992 23.058 1.144C23.362 1.288 23.634 1.488 23.874 1.744C24.282 2.176 24.626 2.824 24.906 3.688C25.058 3.44 25.218 3.184 25.386 2.92C25.562 2.648 25.722 2.392 25.866 2.152C26.018 1.912 26.154 1.7 26.274 1.516C26.394 1.332 26.482 1.196 26.538 1.108C26.602 1.012 26.69 0.96 26.802 0.952C27.058 0.944 27.334 0.987999 27.63 1.084C27.926 1.172 28.074 1.292 28.074 1.444ZM22.134 1.972C21.99 1.972 21.918 2.072 21.918 2.272C21.918 2.464 22.014 2.64 22.206 2.8C22.406 2.96 22.67 3.072 22.998 3.136C22.75 2.36 22.462 1.972 22.134 1.972Z" fill="white"/>
</svg>
